<svg width="666" height="402" viewBox="0 0 666 402" fill="none" xmlns="http://www.w3.org/2000/svg">
<path d="M4.72025 361.151C6.82171 318.283 35.9166 287.022 59.299 261.904L60.9565 260.125C63.6648 257.443 69.9247 250.27 69.4364 241.61C69.1404 236.342 66.3582 231.561 61.1785 227.418C58.0707 224.93 55.1997 222.623 52.4619 220.413C40.3711 210.655 30.8109 202.954 15.9823 193.294C10.5659 189.763 5.22342 186.427 0.0289592 183.286L0.0289592 183.786C5.14942 186.886 10.4031 190.166 15.7307 193.641C30.5445 203.288 40.0899 210.989 52.1659 220.733C54.9037 222.943 57.7747 225.264 60.8825 227.738C65.9734 231.797 68.6964 236.467 68.9924 241.624C69.4808 250.131 63.3096 257.192 60.631 259.847L58.9587 261.64C35.5318 286.799 6.37774 318.116 4.27628 361.137C4.05429 365.724 2.16002 368.518 0.0141602 369.477L0.0141602 369.977C2.32281 369.074 4.46867 366.238 4.72025 361.151Z" fill="white" fill-opacity="0.2"/>
<path d="M15.0648 361.595C17.0034 322.119 44.7812 292.289 67.0981 268.312L68.7704 266.519C73.4617 261.487 77.2503 257.011 80.0621 253.258C83.5398 248.588 89.9922 239.9 74.7344 226.07C58.2779 211.141 40.4895 197.436 21.8871 185.315C14.2952 180.366 6.9993 175.918 0.0289592 171.915L0.0289592 172.402C6.9253 176.363 14.1324 180.769 21.6355 185.662C40.2231 197.769 57.9819 211.475 74.4236 226.375C89.415 239.97 83.0959 248.463 79.6921 253.022C76.8951 256.775 73.1065 261.223 68.43 266.255L66.7577 268.048C44.3964 292.067 16.5595 321.966 14.6208 361.581C13.7181 379.957 10.2403 390.646 3.68432 395.233C2.382 396.136 1.15368 396.637 0.0141602 396.748L0.0141602 397.165C1.25728 397.054 2.55959 396.539 3.9507 395.566C10.6251 390.91 14.1472 380.11 15.0648 361.595Z" fill="white" fill-opacity="0.2"/>
<path d="M195.702 79.2436C192.831 68.5823 169.626 65.7189 142.751 62.4246C136.106 61.6045 129.239 60.7705 122.58 59.7697C93.1148 55.4051 66.151 41.519 40.0751 28.0777C27.0076 21.3501 13.6737 14.4834 0.0141602 8.82614L0.0141602 9.88254C13.4813 15.4842 26.6672 22.2675 39.5719 28.9256C65.7218 42.3947 92.7744 56.3364 122.417 60.7288C129.106 61.7157 135.973 62.5636 142.618 63.3837C168.013 66.5112 191.987 69.458 194.695 79.4799C196.797 87.2917 185.964 99.1484 161.575 115.717C127.345 138.972 98.6348 149.8 71.1974 149.8C55.5993 149.8 40.1491 146.158 25.2465 139C15.9675 134.538 7.81324 129.117 0.0289592 123.64L0.0289592 124.85C7.66525 130.201 15.6863 135.483 24.7877 139.862C39.8383 147.103 55.4513 150.773 71.2122 150.773C98.8716 150.773 127.789 139.889 162.197 116.51C187.296 99.4403 197.951 87.5975 195.702 79.2436Z" fill="white" fill-opacity="0.2"/>
<path d="M3.84774 298.643C7.82868 292.054 13.0083 286.077 18.0104 280.295C25.2175 271.955 32.6762 263.337 36.6868 252.745C43.7607 234.064 29.894 225.446 15.1986 216.299C13.8371 215.451 12.4756 214.604 11.1141 213.742C8.68702 212.199 6.40798 210.753 4.15852 209.28C3.0486 208.557 1.68709 207.64 0 206.486L0 207C1.5539 208.071 2.85621 208.946 3.90694 209.627C6.15639 211.101 8.45024 212.546 10.8773 214.089C12.2388 214.951 13.6003 215.799 14.947 216.647C29.4796 225.696 43.2131 234.23 36.2576 252.606C32.2619 263.128 24.8328 271.719 17.6404 280.031C12.6236 285.827 7.44391 291.818 3.44817 298.435C2.24945 300.422 1.15432 302.994 0 305.732L0 306.858C0.118392 306.58 0.236784 306.288 0.355176 306.01C1.5391 303.244 2.64902 300.631 3.84774 298.643Z" fill="white" fill-opacity="0.2"/>
<path d="M231.974 40.1024C229.429 40.1024 225.833 41.6314 223.184 48.8873C220.209 57.0605 225.936 58.9509 232.004 60.9664C233.069 61.3139 234.164 61.6892 235.23 62.0923C237.613 62.9958 239.625 63.4545 241.194 63.4545C242.94 63.4545 244.198 62.8985 244.923 61.8143C247.188 58.4366 243.562 50.9723 241.89 47.9282C239.211 43.0214 235.496 40.1024 231.974 40.1024ZM244.317 61.439C243.133 63.2043 240.143 63.1904 235.511 61.4529C234.431 61.0498 233.321 60.6745 232.255 60.327C226.306 58.3532 221.156 56.6435 223.894 49.1236C225.877 43.6747 228.674 40.7974 231.974 40.7974C235.215 40.7974 238.678 43.5774 241.238 48.234C244.598 54.3778 245.737 59.3123 244.317 61.439Z" fill="white" fill-opacity="0.2"/>
<path d="M40.0166 268.034C40.6825 267.297 41.3485 266.547 42.0292 265.796C51.5598 255.274 61.4011 244.39 50.2131 231.38C41.5556 221.316 28.4881 213.018 16.9449 205.692C14.5622 204.177 12.298 202.746 10.0781 201.3C8.58343 200.327 6.57077 198.937 4.21772 197.339C2.93021 196.463 1.5243 195.49 0.014799 194.461L0.014799 194.976C1.42071 195.935 2.75262 196.838 3.95134 197.672C6.28958 199.285 8.31705 200.661 9.81175 201.634C12.0316 203.079 14.2959 204.511 16.6785 206.04C28.1773 213.351 41.2301 221.636 49.8431 231.644C60.8092 244.39 51.0714 255.135 41.674 265.532C40.9933 266.283 40.3273 267.019 39.6614 267.77C31.3887 277.027 20.8222 289.426 12.4608 303.243C7.38471 311.625 3.21139 320.437 0 329.472L0 330.834C3.24099 321.382 7.5475 312.181 12.8456 303.437C21.1922 289.676 31.7439 277.291 40.0166 268.034Z" fill="white" fill-opacity="0.2"/>
<path d="M31.5805 127.353C42.8277 132.76 52.3879 135.29 61.6521 135.29C71.3602 135.29 79.9881 132.552 89.9774 129.383C95.6454 127.589 102.068 125.546 109.349 123.823C113.049 122.947 116.26 122.85 118.362 122.85C119.768 122.85 121.129 122.905 122.432 122.947C123.675 122.989 124.844 123.044 125.998 123.044C131.992 123.044 136.772 121.71 141.996 115.079C145.518 110.604 146.85 107.142 148.004 104.098C149.751 99.5392 151.127 95.9391 158.793 90.7822C160.761 89.4617 163.573 88.4192 166.311 87.4184C170.691 85.7921 174.48 84.4021 174.643 82.0252C174.776 80.107 172.393 77.9664 167.139 75.2837C160.865 72.0867 151.897 71.6558 143.949 71.6558C140.412 71.6558 136.683 71.753 133.087 71.8503C129.476 71.9477 125.732 72.0589 122.165 72.0589C114.189 72.0589 108.609 71.5446 104.051 70.3769C78.301 63.8022 54.149 51.3756 32.8384 40.3946C21.6947 34.6261 10.847 29.0383 0.0141602 24.2428L0.0141602 25.0073C10.7287 29.7611 21.4579 35.2933 32.5276 40.9923C53.8678 51.9872 78.0494 64.4416 103.903 71.0303C108.521 72.2118 114.174 72.74 122.21 72.74C125.791 72.74 129.535 72.6427 133.161 72.5315C136.757 72.4342 140.472 72.3369 143.994 72.3369C151.837 72.3369 160.687 72.7539 166.829 75.8814C171.653 78.3417 174.051 80.3989 173.947 81.9696C173.814 83.9017 170.055 85.2917 166.089 86.7512C163.321 87.7798 160.465 88.8362 158.423 90.1984C150.565 95.4804 149.085 99.3585 147.368 103.848C146.214 106.851 144.911 110.256 141.448 114.648C136.402 121.043 131.814 122.335 126.043 122.335C124.903 122.335 123.734 122.294 122.506 122.238C121.189 122.182 119.827 122.141 118.406 122.141C116.26 122.141 112.99 122.238 109.216 123.128C101.905 124.851 95.4678 126.894 89.785 128.701C79.8549 131.857 71.2862 134.581 61.6965 134.581C52.5507 134.581 43.0941 132.079 31.9504 126.728C21.7687 121.821 12.6081 115.302 3.74351 108.991C2.51519 108.115 1.28688 107.24 0.0437582 106.364L0.0437582 107.24C1.13889 108.004 2.21921 108.783 3.29954 109.547C12.1494 115.886 21.3395 122.433 31.5805 127.353Z" fill="white" fill-opacity="0.2"/>
<path d="M38.4028 114.857C49.3393 120.125 60.0538 122.682 71.1827 122.682C77.4131 122.682 90.8654 120.291 102.586 116.302C112.857 112.799 125.11 106.989 125.14 99.1773C125.17 89.9755 106.256 84.8603 94.9499 81.8023C92.4933 81.1351 90.3622 80.5652 88.9563 80.0787C68.7112 73.1843 48.6142 64.4829 25.7201 52.6957C16.959 48.1921 8.42001 43.7997 0.0141602 39.8521L0.0141602 40.3247C8.34601 44.2445 16.8111 48.5952 25.4833 53.071C48.407 64.8721 68.5189 73.5874 88.7787 80.4818C90.2142 80.9683 92.3453 81.5382 94.8019 82.2054C105.99 85.2217 124.711 90.2813 124.681 99.1773C124.637 112.688 84.0874 122.265 71.1679 122.265C60.113 122.265 49.4577 119.722 38.5952 114.481C29.553 110.131 20.9104 103.973 12.5637 98.0375C8.5236 95.1602 4.36507 92.1995 0.0141602 89.3222L0.0141602 89.8365C4.26148 92.6582 8.33121 95.5494 12.2974 98.3711C20.6736 104.334 29.3162 110.492 38.4028 114.857Z" fill="white" fill-opacity="0.2"/>
<path d="M43.1237 106.197C52.5507 110.742 61.7261 112.938 71.1826 112.952C79.3961 112.952 90.1106 110.659 94.2395 105.641C96.0302 103.459 96.5482 100.901 95.749 98.0377C93.8696 91.2962 78.8485 86.5285 67.8677 83.0535C64.3159 81.9276 61.2525 80.9546 59.373 80.1345C46.6903 74.6023 34.1407 68.1387 22.0055 61.8976L20.6588 61.2026C13.6441 57.5886 6.77731 54.058 0.0141602 50.7776L0.0141602 51.2502C6.70332 54.5028 13.4961 57.9917 20.4368 61.5779L21.7835 62.2729C33.9187 68.5279 46.4831 74.9914 59.1658 80.5237C61.0749 81.3577 64.1383 82.3307 67.7049 83.4566C77.9754 86.7092 93.4848 91.6298 95.2902 98.1489C96.045 100.887 95.5714 103.32 93.8695 105.391C89.8294 110.297 79.2777 112.535 71.1383 112.535C61.7853 112.535 52.6691 110.339 43.3013 105.822C35.073 101.86 26.8004 95.9666 18.7941 90.2676C13.0373 86.1671 6.82171 81.7469 0.0141602 77.5768L0.0141602 78.0772C6.71812 82.2056 12.8449 86.5563 18.5573 90.629C26.5636 96.328 34.8511 102.222 43.1237 106.197Z" fill="white" fill-opacity="0.2"/>
<path d="M262.667 -36.2649C263.407 -39.0727 264.132 -41.8388 264.813 -44.591H264.058C263.393 -41.8944 262.682 -39.1839 261.957 -36.4317C260.596 -31.2748 259.19 -25.9511 258.05 -20.5023C254.262 -2.36278 250.991 21.4202 259.441 44.4942C262.875 53.8767 271.443 61.5356 278.991 68.291C285.709 74.3097 291.511 79.5083 290.993 83.8729C290.756 85.8745 289.187 87.6676 286.213 89.3356C284.836 90.1001 282.498 90.4893 279.242 90.4893C267.877 90.4893 247.839 85.7772 233.01 81.1068C216.879 76.0333 197.019 67.9435 193.941 58.2413C192.964 55.1555 193.763 52.028 196.338 48.97C199.638 45.0363 203.175 41.5891 206.594 38.2392C213.327 31.6645 219.691 25.4512 223.909 16.2354C229.917 3.08603 230.642 -10.6333 226.069 -24.5333C224.959 -27.8971 223.85 -30.9968 222.858 -33.7351C221.408 -37.78 220.135 -41.3106 219.277 -44.591H218.507C219.38 -41.2411 220.668 -37.641 222.162 -33.5127C223.139 -30.7744 224.264 -27.6886 225.359 -24.3248C229.873 -10.5916 229.148 2.96093 223.213 15.9575C219.055 25.062 212.735 31.2336 206.046 37.7527C202.613 41.1026 199.061 44.5776 195.731 48.5391C193.008 51.7917 192.15 55.1277 193.201 58.4498C196.368 68.43 216.465 76.6449 232.744 81.774C247.632 86.4583 267.758 91.1844 279.213 91.1844C282.602 91.1844 285.073 90.7673 286.568 89.9333C289.75 88.1541 291.437 86.1942 291.703 83.9563C292.265 79.2442 286.346 73.9344 279.479 67.7906C271.991 61.0908 263.496 53.4875 260.122 44.2579C251.731 21.3368 254.987 -2.33498 258.76 -20.3772C259.9 -25.7982 261.306 -31.1219 262.667 -36.2649Z" fill="white" fill-opacity="0.2"/>
<path d="M140.058 288.842C139.318 289.995 138.622 291.08 138.015 291.886C130.527 301.796 121.663 310.581 111.688 320.228C110.341 321.521 108.965 322.841 107.574 324.162C99.3456 331.973 90.8214 340.049 85.7305 349.599C83.7623 353.296 83.1407 356.187 83.9694 357.952C84.3394 358.759 84.9906 359.287 85.9081 359.523C86.2781 359.62 86.7073 359.676 87.166 359.676C88.9863 359.676 91.4134 358.842 94.166 357.285C99.6416 354.172 104.836 350.335 109.868 346.61C113.982 343.566 118.244 340.411 122.639 337.686C140.354 326.664 152.06 319.366 157.535 298.808C158.675 294.541 159.341 284.838 155.833 280.613C154.62 279.153 153.036 278.472 151.083 278.556C146.525 278.778 142.796 284.588 140.058 288.842ZM151.423 278.973C153.066 278.973 154.442 279.612 155.478 280.877C158.882 284.977 158.216 294.513 157.106 298.711C151.675 319.116 140.028 326.358 122.388 337.339C117.978 340.077 113.715 343.232 109.587 346.29C104.57 350.002 99.3752 353.838 93.9292 356.938C90.6142 358.828 87.7728 359.607 86.0265 359.134C85.2422 358.925 84.6946 358.467 84.369 357.786C83.6143 356.159 84.2358 353.324 86.1153 349.793C91.1766 340.299 99.6712 332.251 107.87 324.453C109.261 323.133 110.652 321.812 111.999 320.52C121.988 310.859 130.853 302.061 138.371 292.136C138.992 291.316 139.688 290.232 140.428 289.078C143.106 284.908 146.762 279.209 151.083 279C151.216 278.973 151.32 278.973 151.423 278.973Z" fill="white" fill-opacity="0.2"/>
<path d="M47.7712 97.6617C50.7163 99.0795 59.0185 101.623 65.0269 101.623C67.1728 101.623 68.8155 101.29 69.8958 100.622C72.234 99.1907 73.27 97.8563 73.0628 96.5219C72.5892 93.589 65.7965 91.8237 60.3504 90.4059C58.101 89.8221 56.1771 89.3078 55.0672 88.8352C42.0736 83.1779 29.3761 76.631 17.0929 70.3065L15.7314 69.6115C10.4185 66.8593 5.17966 64.1627 0.014799 61.6051L0.014799 62.3974C5.06127 64.9133 10.1817 67.5543 15.391 70.2231L16.7525 70.9181C29.0505 77.2565 41.7628 83.8034 54.7712 89.4746C55.9255 89.975 57.8938 90.4893 60.158 91.087C65.1305 92.3797 71.9232 94.1589 72.3376 96.647C72.5004 97.6617 71.5533 98.8154 69.4962 100.053C68.5343 100.636 67.0396 100.928 65.0269 100.928C59.2109 100.928 50.9086 98.3984 48.0968 97.0501C40.6973 93.4917 32.8094 87.8761 25.1583 82.4273C17.8624 77.2426 9.57497 71.3351 0 65.9558L0 66.7759C9.38258 72.0718 17.5516 77.882 24.7292 82.9972C32.3951 88.4321 40.3125 94.0755 47.7712 97.6617Z" fill="white" fill-opacity="0.2"/>
<path d="M25.5573 362.054C27.3332 326.025 53.7642 297.628 75.0008 274.818L76.6731 273.025C101.935 245.864 100.914 236.384 89.0599 225.403C76.0663 213.366 55.5845 195.268 27.8659 177.212C18.3945 171.04 9.04156 165.397 0.0141602 160.393L0.0141602 161.199C8.90837 166.147 18.1282 171.707 27.4368 177.768C55.1109 195.796 75.5632 213.866 88.5419 225.89C100.056 236.551 100.988 245.822 76.1255 272.566L74.4532 274.359C53.1427 297.252 26.608 325.747 24.8321 362.026C23.145 396.068 9.50033 406.062 0.0141602 408.87L0.0141602 409.592C9.72232 406.826 23.8554 396.776 25.5573 362.054Z" fill="white" fill-opacity="0.2"/>
<path d="M188.91 -32.5666C199.047 -2.90393 203.176 13.2201 178.003 26.8838C173.874 29.1217 169.183 30.7897 164.062 31.8044C159.726 32.6662 154.946 33.111 149.885 33.111C103.09 33.111 38.833 -3.61283 4.29205 -23.337L3.10813 -24.0042C2.0574 -24.6158 1.02147 -25.1996 0.0151367 -25.7834L0.0151367 -24.9772C0.903078 -24.4768 1.80582 -23.9625 2.72336 -23.4342L3.90728 -22.767C38.4926 -2.97343 102.883 33.806 149.87 33.806C154.99 33.806 159.815 33.3612 164.21 32.4855C169.405 31.443 174.17 29.7611 178.358 27.4815C204.02 13.5537 199.861 -2.76493 189.605 -32.789C188.303 -36.5837 186.956 -40.5452 185.713 -44.604H184.944C186.202 -40.4618 187.578 -36.4308 188.91 -32.5666Z" fill="white" fill-opacity="0.2"/>
<path d="M174.953 -28.3559C179.053 -16.3463 182.989 -1.27867 176.848 8.67375C173.814 13.6083 168.471 16.8609 161.013 18.3482C157.668 19.0154 153.924 19.349 149.884 19.349C107.189 19.349 45.2104 -16.0683 11.8978 -35.0974L5.75618 -38.6002C3.8767 -39.6705 1.95283 -40.6713 0.0141602 -41.6165L0.0141602 -41.1439C1.87884 -40.2404 3.71392 -39.2813 5.5342 -38.2527L11.6758 -34.7499C45.0032 -15.693 107.07 19.766 149.884 19.766C153.954 19.766 157.742 19.4185 161.102 18.7513C168.693 17.2362 174.125 13.9141 177.232 8.86835C183.463 -1.22307 179.511 -16.4019 175.383 -28.4949C173.607 -33.6796 171.86 -39.0728 170.351 -44.5911H169.892C171.402 -39.0172 173.163 -33.5823 174.953 -28.3559Z" fill="white" fill-opacity="0.2"/>
<path d="M165.098 -25.381C165.32 -24.7416 165.542 -24.1022 165.764 -23.4628C168.132 -16.7074 170.574 -9.7157 166.623 -2.96029C163.322 2.66922 156.648 7.24232 149.604 8.67402C148.879 8.82692 148.153 8.93812 147.443 9.00762C145.682 9.20222 143.832 9.29952 141.953 9.29952C122.078 9.29952 98.7691 -1.45909 81.7502 -9.3126L78.894 -10.6192C57.0358 -20.6967 35.9176 -32.7619 17.2857 -43.4093C16.5013 -43.8541 15.8206 -44.2433 15.2138 -44.5908H14.3555C15.7614 -43.7846 17.0489 -43.0479 17.0489 -43.0479C35.6809 -32.4005 56.8139 -20.3353 78.7016 -10.2578L81.543 -8.9512C98.6063 -1.08379 121.959 9.70262 141.938 9.70262C143.847 9.70262 145.712 9.60532 147.487 9.41072C148.213 9.32732 148.953 9.21612 149.693 9.06322C156.855 7.60372 163.648 2.96112 167.007 -2.77959C171.048 -9.6879 168.576 -16.763 166.179 -23.6157C165.957 -24.2551 165.735 -24.8945 165.513 -25.5339C163.426 -31.6221 161.384 -38.0022 159.682 -44.6047H159.223C160.94 -37.9466 162.997 -31.5109 165.098 -25.381Z" fill="white" fill-opacity="0.2"/>
<path d="M148.981 265.7C142.485 267.201 136.817 275.652 132.244 282.435C130.645 284.812 129.136 287.05 127.819 288.649C120.479 297.558 112.191 305.579 104.17 313.321C102.083 315.337 99.4491 317.63 96.6817 320.049C88.4238 327.235 78.1533 336.187 75.0307 344.374C72.4113 351.254 73.9504 357.829 75.4451 364.167C76.6734 369.38 77.9461 374.773 76.9398 380.361C76.3182 383.836 74.0836 387.255 71.7009 390.869C68.8595 395.206 65.9293 399.682 65.7517 404.505C65.6925 406.145 65.9589 407.758 66.5509 409.315C68.5043 414.471 70.5466 416.862 72.9736 416.862C75.4155 416.862 77.9905 414.513 81.8679 408.772C85.5676 403.282 87.0179 396.93 88.4238 390.786C89.8297 384.614 91.2948 378.234 95.0242 372.716C102.128 362.207 114.648 354.451 125.688 347.626C126.62 347.056 127.538 346.473 128.455 345.917C146.791 334.505 161.279 325.484 167.747 301.214C169.463 294.792 169.005 278.418 162.049 270.05C158.66 265.978 154.22 264.49 148.981 265.7ZM161.457 270.467C167.687 277.973 168.931 293.833 167.021 301.033C160.628 325.053 146.244 334.004 128.041 345.333C127.138 345.903 126.206 346.473 125.273 347.043C114.159 353.909 101.565 361.707 94.3878 372.341C90.5845 377.97 89.1194 384.406 87.6839 390.647C86.2928 396.735 84.8573 403.032 81.2315 408.411C78.6417 412.247 75.6375 416.181 72.9736 416.181C70.9314 416.181 69.0667 413.86 67.2464 409.092C66.6841 407.605 66.4325 406.104 66.4917 404.533C66.6693 399.904 69.5403 395.498 72.3373 391.245C74.7495 387.561 77.0286 384.086 77.6649 380.486C78.7009 374.759 77.4134 369.296 76.1702 364.028C74.6311 357.481 73.166 351.31 75.7263 344.61C78.7897 336.59 88.9862 327.708 97.1849 320.563C99.9671 318.131 102.601 315.851 104.703 313.808C112.739 306.037 121.041 298.003 128.411 289.066C129.758 287.439 131.267 285.174 132.88 282.797C137.379 276.125 142.958 267.812 149.159 266.367C150.284 266.103 151.379 265.978 152.415 265.978C155.937 265.992 158.986 267.493 161.457 270.467Z" fill="white" fill-opacity="0.2"/>
<path d="M155.79 235.522C152.268 230.754 149.204 230.143 145.949 229.489C143.714 229.044 141.391 228.572 138.742 226.695L138.52 226.459C130.972 218.522 105.651 192.64 97.0823 192.64C96.076 192.64 95.2916 192.974 94.7441 193.641C93.6045 195.045 93.6637 197.867 94.9216 202.273C95.6764 204.886 102.839 208.5 110.431 212.337C116.75 215.52 123.291 218.814 125.511 221.288C127.494 223.512 130.114 226.584 129.877 227.641C129.818 227.932 129.477 228.099 128.9 228.363C127.583 228.975 125.585 229.92 126.651 234.299C127.391 237.329 129.389 240.345 131.312 243.264C133.118 245.975 134.82 248.546 135.501 251.034C137.395 257.873 125.467 270.425 117.579 278.723C114.974 281.461 112.725 283.824 111.289 285.617C105.547 292.776 98.3698 299.42 91.4439 305.828C77.962 318.31 64.0361 331.21 59.1228 349.015C51.7973 375.634 50.3322 399.139 54.7867 418.877C57.1545 429.413 65.3236 444.092 73.2411 444.092C78.1692 444.092 81.7653 438.532 83.9112 427.551C92.1986 385.267 114.797 371.2 136.67 357.592C156.042 345.54 174.333 334.156 182.206 304.577C185.166 293.415 180.608 276.263 174.674 266.769C172.025 262.53 168.695 260.153 165.469 257.845C162.642 255.816 159.963 253.912 157.891 250.854C156.426 248.699 156.693 246.169 156.959 243.514C157.285 240.79 157.581 237.94 155.79 235.522ZM157.048 251.41C159.209 254.607 161.961 256.566 164.877 258.651C168.014 260.903 171.27 263.225 173.815 267.297C179.646 276.624 184.13 293.457 181.23 304.382C173.46 333.586 155.331 344.873 136.122 356.813C114.086 370.533 91.2811 384.725 82.9196 427.412C80.907 437.711 77.5624 443.16 73.2559 443.16C66.5371 443.16 58.3533 430.011 55.8078 418.71C51.3977 399.125 52.848 375.759 60.144 349.293C64.9684 331.738 78.8055 318.936 92.1838 306.551C99.1394 300.115 106.332 293.457 112.133 286.229C113.539 284.478 115.773 282.129 118.363 279.404C126.888 270.439 138.549 258.151 136.507 250.826C135.767 248.185 134.035 245.572 132.186 242.792C130.291 239.942 128.353 237.009 127.657 234.132C126.769 230.49 128.145 229.851 129.359 229.281C130.025 228.961 130.72 228.641 130.898 227.877C131.12 226.862 130.439 225.305 126.31 220.704C123.972 218.091 117.342 214.755 110.934 211.516C104.201 208.125 96.5791 204.275 95.9428 202.064C94.4925 197.033 94.9512 195.059 95.5876 194.28C95.928 193.863 96.4163 193.669 97.0971 193.669C103.564 193.669 122.344 210.974 137.765 227.154C137.957 227.349 138.061 227.46 138.076 227.46C140.961 229.517 143.507 230.031 145.741 230.476C148.908 231.116 151.646 231.658 154.946 236.12C156.515 238.232 156.249 240.79 155.968 243.487C155.686 246.155 155.39 248.963 157.048 251.41Z" fill="white" fill-opacity="0.2"/>
<path d="M0.0141602 145.298C49.9165 171.819 103.696 214.02 113.493 234.995C119.368 247.588 105.117 262.642 87.0768 281.699C66.5654 303.355 41.0519 330.307 39.4536 362.653C37.5149 402.087 16.7075 418.281 0.0141602 423.173L0.0141602 424.188C17.0922 419.295 38.5212 402.893 40.4895 362.694C42.0582 330.697 67.4533 303.883 87.8464 282.338C106.138 263.017 120.582 247.769 114.44 234.592C104.569 213.464 50.2716 170.888 0.0141602 144.242L0.0141602 145.298Z" fill="white" fill-opacity="0.2"/>
<path d="M251.405 -44.5076C251.435 -44.5354 251.45 -44.5632 251.479 -44.591H250.872C249.94 -43.6597 249.008 -42.6867 248.357 -41.2689C246.521 -37.2101 247.039 -32.9845 247.543 -28.8979C247.824 -26.6183 248.12 -24.2692 248.001 -21.9618C247.824 -18.3339 247.025 -14.5809 246.27 -10.9391C245.648 -7.9367 244.997 -4.83699 244.686 -1.80679C242.792 16.5829 244.509 33.2074 249.777 47.6078C250.872 50.5963 255.164 55.1972 259.707 60.0622C265.509 66.2894 271.517 72.7251 271.754 76.631C271.813 77.5067 271.576 78.1878 271.029 78.7299C269.46 80.2867 265.257 80.5786 258.523 79.5778C253.64 78.855 248.934 76.9368 244.39 75.0742C241.741 73.99 238.989 72.8641 236.251 72.0023C235.481 71.7521 234.682 71.5158 233.854 71.2517C224.012 68.2076 210.545 64.0237 208.606 56.7123C207.689 53.2234 209.494 49.2341 213.978 44.8556C221.038 37.9612 228.348 30.8304 233.291 20.0023C238.027 9.61902 243.488 -10.5777 241.401 -21.5031C240.972 -23.741 239.98 -25.2561 239.018 -26.7156C237.731 -28.6755 236.517 -30.5242 237.065 -33.8741C237.479 -36.3483 238.5 -37.7939 239.403 -39.0588C240.483 -40.5878 241.431 -41.9778 241.164 -44.591H240.72C240.987 -42.1029 240.099 -40.8102 239.033 -39.2812C238.101 -37.9746 237.05 -36.4873 236.636 -33.9297C236.059 -30.4269 237.316 -28.5087 238.648 -26.4932C239.596 -25.0615 240.557 -23.5881 240.972 -21.4197C243.044 -10.5638 237.612 9.52172 232.892 19.8494C227.978 30.608 220.697 37.711 213.668 44.5776C209.08 49.0673 207.23 53.1817 208.192 56.8235C210.175 64.3573 223.79 68.5829 233.735 71.6687C234.564 71.9189 235.363 72.1691 236.133 72.4193C238.856 73.2811 241.593 74.3931 244.228 75.4773C248.801 77.3399 253.521 79.272 258.464 80.0087C261.113 80.3979 263.392 80.6064 265.257 80.6064C268.306 80.6064 270.304 80.0921 271.354 79.0357C271.976 78.4102 272.257 77.604 272.198 76.631C271.946 72.5861 265.893 66.0948 260.033 59.812C255.519 54.9748 251.257 50.4017 250.192 47.4966C244.938 33.1517 243.236 16.5829 245.116 -1.73729C245.426 -4.73969 246.078 -7.83939 246.699 -10.8279C247.469 -14.4836 248.253 -18.2505 248.431 -21.9062C248.549 -24.2414 248.253 -26.6183 247.972 -28.9118C247.454 -33.1374 246.951 -37.1128 248.756 -41.0743C249.437 -42.5477 250.428 -43.5485 251.405 -44.5076Z" fill="white" fill-opacity="0.2"/>
<path d="M202.85 -36.7793C212.217 -9.38239 221.896 18.9319 185.328 38.7951C179.867 41.7697 173.725 43.9381 167.11 45.2586C161.767 46.3289 155.966 46.871 149.869 46.871C100.426 46.871 38.5804 12.3433 0.0141602 -9.67429L0.0141602 -8.53448C38.7136 13.5387 100.381 47.844 149.869 47.844C156.04 47.844 161.901 47.3019 167.317 46.2177C174.051 44.8694 180.281 42.6593 185.845 39.643C223.139 19.3906 213.327 -9.31289 203.841 -37.0712C202.983 -39.601 202.124 -42.103 201.31 -44.5911H200.23C201.059 -42.0057 201.962 -39.4064 202.85 -36.7793Z" fill="white" fill-opacity="0.2"/>
<path d="M13.8364 244.78C13.1113 240.304 9.81111 236.287 3.77311 232.534C2.52999 231.77 1.28688 230.991 0.0141602 230.171L0.0141602 230.671C1.19808 231.422 2.3672 232.159 3.53633 232.882C9.47074 236.565 12.6969 240.485 13.4073 244.836C14.5764 252.05 8.74558 259.472 1.59766 267.757C1.10929 268.313 0.576523 269.008 0.0289592 269.744L0.0289592 270.467C0.724513 269.536 1.36087 268.688 1.95283 268.021C9.15996 259.667 15.05 252.161 13.8364 244.78Z" fill="white" fill-opacity="0.2"/>
<path d="M26.9336 249.492C30.7813 239.345 26.904 235.258 9.48553 224.43C8.10922 223.568 6.71812 222.706 5.29741 221.803C3.47713 220.649 1.73085 219.537 0.0141602 218.425L0.0141602 218.926C1.65685 219.982 3.31434 221.038 5.06063 222.15C6.46653 223.04 7.85764 223.916 9.24875 224.764C26.4304 235.453 30.2634 239.456 26.5192 249.339C23.1302 258.29 16.5743 265.866 9.63352 273.886C6.40734 277.625 3.10716 281.434 0.0141602 285.507L0.0141602 286.229C3.19595 281.99 6.61452 278.028 9.9739 274.15C16.9442 266.102 23.515 258.499 26.9336 249.492Z" fill="white" fill-opacity="0.2"/>
<path d="M143.669 301.88H143.565C141.464 301.88 139.333 304.382 137.779 306.217C137.439 306.606 137.143 306.968 136.876 307.246C135.411 308.816 133.99 310.471 132.629 312.083C131.741 313.125 130.868 314.154 129.965 315.169L129.861 315.294C126.902 318.588 125.703 320.729 126.177 321.841C126.31 322.147 126.635 322.536 127.434 322.619C127.553 322.633 127.671 322.633 127.79 322.633H127.864C133.783 322.508 138.578 317.476 140.916 314.488C143.136 311.638 144.72 308.552 145.282 306.036C145.415 305.453 145.77 303.451 144.927 302.45C144.601 302.103 144.172 301.908 143.669 301.88ZM144.542 305.911C144.009 308.33 142.47 311.318 140.31 314.085C138.06 316.976 133.443 321.841 127.834 321.952L127.775 322.299V321.952C127.686 321.952 127.597 321.952 127.508 321.938C126.976 321.882 126.887 321.66 126.857 321.591C126.694 321.201 126.724 319.867 130.424 315.739L130.542 315.614C131.445 314.585 132.333 313.556 133.221 312.514C134.582 310.915 135.988 309.261 137.453 307.704C137.72 307.426 138.031 307.051 138.371 306.648C139.747 305.022 141.834 302.575 143.654 302.575C143.95 302.589 144.172 302.687 144.35 302.895C144.838 303.507 144.764 304.911 144.542 305.911Z" fill="white" fill-opacity="0.2"/>
<path d="M299.798 442.702C319.437 440.603 340.496 419.239 340.762 401.141C341.176 373.397 324.202 351.226 307.775 329.792C304.993 326.151 302.107 322.384 299.384 318.686L297.741 316.462C290.016 306.009 281.255 294.153 278.399 281.351C275.987 270.495 272.302 245.239 276.312 236.509C279.257 230.115 287.633 226.46 295.729 222.929C301.323 220.483 306.606 218.175 310.32 215.02L310.498 214.867C323.196 204.067 323.196 204.067 331.853 203.789C334.472 203.705 337.728 203.594 342.331 203.191C348.502 202.649 352.142 201.801 354.806 201.189C356.493 200.8 357.722 200.508 358.802 200.508C361.466 200.508 363.7 202.287 371.085 208.153C392.914 225.514 392.499 255.705 392.115 284.909C391.611 321.647 391.093 359.65 435.372 371.673C441.736 373.397 447.936 374.286 453.797 374.286C470.446 374.286 484.608 367.295 494.775 354.09C509.693 334.699 513.659 304.453 504.632 278.807C483.809 219.621 434.055 185.774 380.542 153.526C331.897 124.211 285.576 116.135 245.959 110.867C243.088 110.492 240.365 110.297 237.85 110.297C221.793 110.297 214.156 117.97 204.493 127.686C200.793 131.411 196.96 135.248 192.209 139.181C186.763 143.671 179.852 146.743 173.148 149.718C162.227 154.569 151.912 159.142 147.65 169.331C138.607 190.945 160.821 207.778 180.429 222.637C189.501 229.518 198.07 236.009 203.101 242.5C223.006 268.243 217.057 311.653 199.002 336.047C193.364 343.665 182.56 353.075 171.121 363.055C152.178 379.568 130.705 398.292 126.916 414.013C125.125 421.407 125.599 426.578 128.337 429.803C130.631 432.5 134.493 433.806 140.146 433.806C149.455 433.806 162.774 430.206 176.878 426.397C194.118 421.741 213.668 416.459 230.332 416.459C238.279 416.459 244.864 417.613 250.444 420.003C256.866 422.756 262.312 426.717 267.566 430.567C276.253 436.906 284.452 442.897 296.054 442.897C297.282 442.897 298.54 442.827 299.798 442.702ZM250.769 419.378C245.086 416.945 238.412 415.764 230.346 415.764C213.579 415.764 193.97 421.06 176.685 425.73C162.626 429.525 149.351 433.111 140.146 433.111C134.73 433.111 131.06 431.888 128.929 429.372C126.339 426.328 125.91 421.352 127.641 414.179C131.385 398.667 152.77 380.027 171.624 363.569C183.093 353.575 193.926 344.123 199.609 336.45C217.812 311.861 223.791 268.076 203.693 242.097C198.617 235.536 190.004 229.003 180.888 222.095C161.487 207.389 139.495 190.709 148.33 169.581C152.489 159.656 162.671 155.125 173.459 150.343C180.207 147.355 187.178 144.255 192.698 139.696C197.478 135.748 201.326 131.884 205.04 128.159C214.586 118.568 222.118 110.992 237.864 110.992C240.351 110.992 243.044 111.187 245.871 111.562C285.399 116.816 331.631 124.878 380.157 154.124C433.552 186.302 483.203 220.066 503.951 279.043C512.904 304.494 508.982 334.491 494.198 353.7C484.179 366.725 470.209 373.605 453.812 373.605C448.025 373.605 441.898 372.743 435.594 371.02C415.985 365.696 403.569 354.743 397.664 337.562C392.366 322.175 392.633 303.243 392.884 284.937C393.284 255.58 393.698 225.223 371.603 207.639C361.051 199.243 360.755 199.104 354.658 200.522C352.024 201.134 348.398 201.968 342.286 202.51C337.713 202.913 334.458 203.024 331.853 203.108C322.929 203.399 322.929 203.399 310.024 214.367L309.847 214.52C306.221 217.605 300.982 219.899 295.433 222.317C287.204 225.904 278.695 229.629 275.646 236.259C271.562 245.141 275.262 270.578 277.689 281.518C280.56 294.458 289.365 306.371 297.134 316.893L298.777 319.117C301.5 322.815 304.386 326.581 307.183 330.223C323.536 351.574 340.451 373.633 340.037 401.155C339.77 418.961 319.052 439.964 299.724 442.035C298.496 442.16 297.268 442.23 296.084 442.23C284.733 442.23 276.638 436.308 268.054 430.053C262.742 426.161 257.266 422.158 250.769 419.378Z" fill="white" fill-opacity="0.2"/>
<path d="M645.83 228.657C645.075 228.142 643.921 227.197 642.456 225.988C636.832 221.373 627.405 213.659 620.761 213.659C618.156 213.659 616.217 214.84 614.989 217.175C613.45 220.094 616.839 226.877 619.088 231.367C619.636 232.465 620.109 233.411 620.405 234.092C621.012 235.496 621.574 236.774 622.033 237.928C625.171 245.656 628.426 253.635 630.839 262.309C631.09 263.212 631.342 264.241 631.593 265.325C632.703 269.954 634.065 275.694 637.469 278.516C638.786 279.614 640.073 280.337 641.302 280.684C641.864 280.837 642.411 280.921 642.959 280.921C646.984 280.921 649.752 276.626 652.43 272.47C653.037 271.524 653.673 270.537 654.295 269.648L654.887 268.8C665.084 254.219 671.24 245.406 652.49 233.188C650.669 231.965 648.301 230.353 645.83 228.657ZM654.265 268.397L653.674 269.245C653.037 270.162 652.401 271.135 651.794 272.094C649.219 276.084 646.57 280.212 642.959 280.212C642.485 280.212 642.012 280.142 641.524 280.003C640.414 279.698 639.215 279.016 637.972 277.988C634.746 275.319 633.399 269.69 632.319 265.158C632.052 264.06 631.815 263.031 631.564 262.128C629.137 253.427 625.881 245.42 622.729 237.678C622.255 236.524 621.708 235.231 621.086 233.828C620.775 233.133 620.302 232.173 619.754 231.061C617.697 226.961 614.264 220.094 615.655 217.481C616.765 215.382 618.437 214.354 620.761 214.354C627.124 214.354 636.418 221.971 641.967 226.516C643.447 227.725 644.617 228.685 645.401 229.227C647.872 230.922 650.24 232.549 652.075 233.744C670.219 245.573 664.21 254.163 654.265 268.397Z" fill="white" fill-opacity="0.2"/>
<path d="M657.965 213.059C654.694 210.822 651.438 208.32 647.99 205.679C637.438 197.589 625.496 188.415 614.752 188.415C612.635 188.415 610.623 188.762 608.595 189.485C589.623 196.227 592.346 215.061 595.646 225.695C597.674 232.186 600.278 238.622 602.809 244.835C605.754 252.077 608.802 259.569 610.919 267.2C612.206 271.801 612.842 276.652 613.464 281.336C615.373 295.723 617.179 309.303 637.601 309.303C639.214 309.303 640.961 309.22 642.781 309.053C645.104 308.831 647.013 308.497 648.641 308.01C654.073 306.37 655.7 303.271 658.157 298.586C658.897 297.168 659.741 295.57 660.791 293.846C662.39 291.191 664.136 288.676 665.956 286.257V285.534C664.003 288.12 662.123 290.802 660.407 293.638C659.356 295.375 658.512 296.988 657.758 298.406C655.345 302.993 653.762 306.023 648.508 307.607C646.91 308.094 645.03 308.427 642.736 308.636C640.931 308.803 639.2 308.886 637.601 308.886C617.563 308.886 615.876 296.098 613.908 281.281C613.286 276.583 612.635 271.718 611.348 267.089C609.217 259.43 606.168 251.938 603.208 244.682C600.678 238.469 598.073 232.061 596.046 225.583C592.775 215.089 590.082 196.491 608.714 189.874C610.682 189.179 612.65 188.832 614.707 188.832C625.288 188.832 637.172 197.95 647.665 205.998C651.113 208.653 654.383 211.155 657.654 213.393C660.125 215.089 662.301 216.576 663.929 217.633C664.595 218.063 665.261 218.494 665.927 218.925V218.425C665.349 218.05 664.757 217.674 664.18 217.299C662.597 216.229 660.421 214.741 657.965 213.059Z" fill="white" fill-opacity="0.2"/>
<path d="M612.768 10.9126C610.829 10.9126 608.935 10.8987 607.07 10.8848C605.279 10.8709 603.518 10.857 601.787 10.857C591.694 10.857 583.658 11.3713 574.808 13.8872C570.176 15.2077 565.84 17.2788 561.637 19.2943C554.637 22.6442 548.007 25.8134 540.09 25.8134C538.773 25.8134 537.441 25.73 536.138 25.5493C530.293 24.757 525.927 21.5183 521.694 18.3908C516.944 14.8741 512.445 11.552 506.155 11.552C505.578 11.552 505.001 11.5798 504.409 11.6354C500.517 12.0107 494.301 15.2911 488.278 18.4742C484.401 20.5175 480.746 22.4496 478.156 23.3392C474.382 24.6458 471.555 25.2713 469.498 25.7439C463.283 27.1339 462.498 27.6482 459.465 38.4068C458.636 41.3814 458.029 44.1614 457.437 46.8441C455.262 56.8243 453.545 64.7056 442.224 72.2255C434.587 77.2851 424.894 79.7593 412.581 79.7593C400.387 79.7593 387.645 77.3685 376.398 75.2418C370.522 74.1298 364.958 73.0873 360.844 72.6842C358.446 72.4479 354.747 72.295 350.958 72.295C340.096 72.295 327.369 76.0341 326.481 81.3856C326.066 83.9293 328.168 87.7379 340.628 91.477L342.02 91.894C389.48 106.197 422.585 124.851 456.268 156.293C465.562 164.966 472.665 169.011 478.6 169.011C479.991 169.011 481.367 168.775 482.655 168.33C488.974 166.12 493.576 158.628 498.919 149.954C501.671 145.479 504.794 140.405 508.494 135.512C526.371 111.854 552.018 94.5629 580.713 86.8344C589.178 84.5548 597.451 83.4011 605.279 83.4011C630.837 83.4011 648.877 95.1605 665.955 107.254V106.378C648.907 94.3265 630.867 82.7061 605.279 82.7061C597.377 82.7061 589.045 83.8737 580.506 86.1672C551.648 93.9373 525.853 111.326 507.887 135.109C504.172 140.016 501.05 145.117 498.282 149.607C493.014 158.169 488.471 165.55 482.403 167.677C481.19 168.108 479.917 168.316 478.6 168.316C472.858 168.316 465.932 164.341 456.786 155.806C423.015 124.281 389.82 105.572 342.242 91.2407L340.85 90.8237C331.527 88.0298 326.688 84.7077 327.221 81.5107C327.96 77.0627 339.282 73.0039 350.973 73.0039C354.732 73.0039 358.402 73.1429 360.77 73.3792C364.854 73.7823 370.404 74.8248 376.264 75.9368C387.541 78.0635 400.328 80.4682 412.596 80.4682C425.057 80.4682 434.898 77.9662 442.668 72.8093C454.226 65.1226 455.972 57.1162 458.177 46.997C458.769 44.3143 459.361 41.5482 460.204 38.5875C463.209 27.8706 463.83 27.7316 469.691 26.425C471.777 25.9663 474.619 25.3269 478.437 24.0064C481.086 23.089 484.771 21.143 488.663 19.0858C494.331 16.0973 500.769 12.6918 504.498 12.3304C505.06 12.2748 505.623 12.247 506.17 12.247C512.208 12.247 516.604 15.4996 521.265 18.9329C525.572 22.116 530.026 25.4103 536.064 26.2304C537.411 26.4111 538.787 26.5084 540.134 26.5084C548.229 26.5084 555.244 23.1585 562.007 19.9198C566.18 17.9321 570.487 15.861 575.045 14.5683C583.821 12.0663 591.783 11.5659 601.802 11.5659C603.533 11.5659 605.279 11.5798 607.07 11.5937C608.935 11.6076 610.829 11.6215 612.768 11.6215C621.81 11.6215 629.89 12.6084 637.497 14.6517C647.101 17.2232 656.528 20.8233 665.97 25.0211V24.2566C656.602 20.1144 647.249 16.5421 637.704 13.9845C630.023 11.9134 621.869 10.9126 612.768 10.9126Z" fill="white" fill-opacity="0.2"/>
<path d="M658.32 225.279C656.603 224.153 654.28 222.568 651.853 220.9C648.375 218.509 645.016 215.938 641.434 213.2C640.635 212.588 639.747 211.879 638.815 211.142C632.851 206.388 624.682 199.883 617.164 199.883C615.092 199.883 613.168 200.384 611.451 201.384C598.458 208.932 606.272 226.947 610.933 237.705C611.496 239.012 612.043 240.249 612.487 241.347C615.536 248.825 618.688 256.568 620.952 264.727C621.381 266.256 621.811 268.063 622.255 269.967C624.326 278.696 627.153 290.664 634.271 294.973C635.441 295.682 636.684 296.127 637.942 296.294C638.312 296.349 638.711 296.363 639.096 296.363C647.798 296.363 656.47 283.951 662.819 274.874C663.973 273.234 665.009 271.746 665.971 270.454V269.731C664.92 271.135 663.751 272.789 662.449 274.651C656.174 283.645 647.561 295.946 639.096 295.946C638.726 295.946 638.371 295.918 638.001 295.877C636.802 295.724 635.633 295.293 634.508 294.626C627.538 290.414 624.726 278.543 622.684 269.884C622.225 267.979 621.811 266.172 621.381 264.63C619.102 256.456 615.95 248.7 612.902 241.208C612.458 240.11 611.925 238.873 611.348 237.566C606.73 226.919 599.02 209.113 611.688 201.76C613.346 200.801 615.181 200.314 617.164 200.314C624.519 200.314 632.614 206.764 638.519 211.476C639.451 212.226 640.339 212.921 641.168 213.561C644.734 216.285 648.094 218.871 651.586 221.261C654.013 222.929 656.337 224.514 658.053 225.64C660.362 227.141 662.7 228.629 665.187 230.213C665.453 230.38 665.705 230.533 665.956 230.7V230.199C665.779 230.088 665.601 229.977 665.409 229.852C662.952 228.267 660.628 226.78 658.32 225.279Z" fill="white" fill-opacity="0.2"/>
<path d="M581.394 323.926C582.238 324.955 583.806 326.359 587.758 326.664C602.542 327.804 624.903 329.514 643.772 345.666L643.994 345.846C650.446 351.379 655.685 358.384 659.562 366.669C660.643 368.948 662.374 370.269 664.343 370.269C664.875 370.269 665.423 370.171 665.97 369.963V369.463C665.438 369.699 664.89 369.852 664.343 369.852C662.567 369.852 660.968 368.629 659.962 366.502C656.055 358.162 650.772 351.115 644.275 345.541L644.053 345.36C625.066 329.111 602.616 327.387 587.772 326.247C583.999 325.956 582.504 324.635 581.72 323.676C579.84 321.355 579.603 317.796 579.811 316.698C581.868 308.191 584.428 297.6 583.466 286.021C581.853 266.408 573.491 249.547 565.426 233.242C558.944 220.163 551.604 205.331 554.149 198.576C558.692 186.552 577.25 169.302 585.005 162.45C589.933 158.099 595.808 155.889 602.438 155.889C606.227 155.889 609.497 156.639 611.584 157.265C625.199 161.379 644.467 170.831 665.956 183.8V183.3C644.541 170.387 625.318 160.976 611.717 156.862C609.616 156.222 606.286 155.458 602.438 155.458C595.69 155.458 589.726 157.71 584.709 162.144C576.925 169.024 558.308 186.33 553.735 198.437C551.13 205.359 558.515 220.26 565.026 233.423C573.077 249.686 581.409 266.505 583.037 286.049C583.999 297.572 581.438 308.122 579.396 316.629C579.174 317.768 579.426 321.508 581.394 323.926Z" fill="white" fill-opacity="0.2"/>
<path d="M609.246 311.334C612.62 313.071 617.237 313.808 621.707 314.517C625.022 315.045 628.44 315.587 631.222 316.532C632.983 317.13 634.922 318.033 636.979 318.979C641.227 320.939 646.036 323.176 650.417 323.176C651.26 323.176 652.074 323.093 652.844 322.926C653.051 322.885 653.243 322.829 653.451 322.773C659.725 321.022 663.07 313.627 665.956 306.844V305.718C665.941 305.76 665.926 305.801 665.897 305.843C662.966 312.765 659.651 320.605 653.317 322.384C653.125 322.44 652.933 322.481 652.74 322.523C652.015 322.676 651.231 322.759 650.417 322.759C646.14 322.759 641.375 320.549 637.172 318.603C635.1 317.644 633.146 316.741 631.37 316.143C628.544 315.184 625.096 314.642 621.766 314.1C617.326 313.391 612.738 312.654 609.438 310.958C602.127 307.191 602.897 300.297 603.696 293C604.007 290.15 604.333 287.189 604.111 284.493C602.202 261.363 593.056 242.89 584.206 225.042C580.195 216.939 579.899 208.043 583.377 200.022C587.151 191.335 595.054 184.315 605.058 180.771C608.18 179.659 611.421 179.103 614.721 179.103C629.003 179.103 642.41 189.389 654.235 198.466C657.579 201.037 660.746 203.456 663.78 205.541C664.565 206.083 665.275 206.569 665.941 207.028V206.514C665.349 206.111 664.713 205.68 664.032 205.207C661.013 203.136 657.846 200.717 654.501 198.146C642.618 189.027 629.136 178.7 614.707 178.7C611.362 178.7 608.062 179.27 604.895 180.396C594.772 183.982 586.781 191.085 582.963 199.883C579.426 208.015 579.737 217.022 583.806 225.237C592.641 243.071 601.772 261.502 603.667 284.548C603.889 287.203 603.563 290.15 603.252 292.986C602.497 300.075 601.684 307.428 609.246 311.334Z" fill="white" fill-opacity="0.2"/>
<path d="M612.769 24.951C600.323 24.951 587.092 27.0638 573.048 29.3156C557.258 31.8454 540.919 34.4586 523.531 34.4586C522.273 34.4586 521.03 34.4447 519.846 34.4169C513.808 34.2779 508.687 33.3466 504.174 32.5265C500.267 31.8176 496.892 31.1921 493.651 31.1921C485.956 31.1921 480.303 35.0007 474.131 44.3137C471.157 48.8034 468.981 54.1827 466.88 59.3674C463.165 68.5553 459.318 78.0629 450.838 83.6925C447.922 85.6246 442.328 87.1258 436.409 88.7243C426.064 91.5043 414.343 94.6457 412.745 101.206C410.762 109.435 428.743 120.68 438.407 126.727C440.197 127.853 441.751 128.826 442.772 129.521C454.108 137.333 463.476 142.531 472.385 142.531C473.599 142.531 474.812 142.434 475.996 142.225C483.1 141.03 489.552 136.304 496.3 127.366C516.131 101.123 544.649 81.9271 576.6 73.3091C586.412 70.6681 596.061 69.3337 605.295 69.3337C630.824 69.3337 649.722 79.022 665.971 89.8085V89.2942C649.722 78.5355 630.824 68.9167 605.295 68.9167C596.031 68.9167 586.338 70.265 576.481 72.9199C544.427 81.5518 515.835 100.803 495.945 127.13C489.271 135.97 482.907 140.641 475.922 141.808C474.768 142.003 473.584 142.1 472.385 142.1C463.595 142.1 454.301 136.93 443.039 129.173C442.018 128.464 440.449 127.491 438.658 126.365C429.083 120.375 411.265 109.227 413.174 101.276C414.713 94.9515 426.301 91.8518 436.527 89.1135C442.491 87.515 448.115 86.0138 451.089 84.0261C459.688 78.327 463.55 68.7638 467.294 59.5203C469.381 54.3495 471.556 48.998 474.501 44.5361C480.584 35.3482 486.119 31.6091 493.637 31.6091C496.833 31.6091 500.178 32.2207 504.07 32.9296C508.598 33.7636 513.748 34.6949 519.816 34.8339C521.015 34.8617 522.258 34.8756 523.516 34.8756C540.949 34.8756 557.302 32.2624 573.137 29.7187C587.137 27.4808 600.352 25.3541 612.754 25.3541C620.42 25.3541 627.183 26.1742 633.458 27.8561C644.217 30.7334 654.976 35.1397 665.956 40.2966V39.824C655.02 34.6949 644.305 30.3164 633.576 27.4391C627.287 25.785 620.464 24.951 612.769 24.951Z" fill="white" fill-opacity="0.2"/>
<path d="M599.672 318.825C602.705 319.534 605.65 320.187 608.521 320.799C624.001 324.163 637.35 327.082 650.713 338.438L650.98 338.66C654.058 341.273 656.47 342.538 658.394 342.538C658.69 342.538 658.986 342.511 659.267 342.441C662.168 341.816 663.618 338.007 665.202 333.1C665.453 332.336 665.72 331.585 665.971 330.821V329.458C665.557 330.626 665.157 331.808 664.772 332.975C663.219 337.757 661.827 341.454 659.164 342.038C657.24 342.455 654.709 341.26 651.276 338.341L651.009 338.118C637.557 326.678 624.149 323.759 608.61 320.382C605.754 319.756 602.794 319.117 599.775 318.408C588.927 315.85 590.763 306.259 592.538 297.002C593.308 292.957 594.122 288.759 593.826 285.256C592.065 263.892 583.319 246.225 574.854 229.128C573.847 227.085 572.752 225.097 571.716 223.165C566.285 213.143 561.579 204.497 568.298 193.85C573.344 185.844 580.921 179.283 588.232 172.944C589.549 171.805 590.866 170.665 592.154 169.525C594.98 167.037 598.828 165.772 603.578 165.772C621.811 165.772 649.855 183.995 665.986 194.976V194.462C649.766 183.439 621.84 165.355 603.578 165.355C598.71 165.355 594.758 166.662 591.843 169.219C590.555 170.359 589.238 171.499 587.921 172.639C580.581 179.005 572.989 185.579 567.898 193.641C561.061 204.483 566.033 213.657 571.302 223.36C572.353 225.292 573.433 227.279 574.439 229.323C582.875 246.378 591.621 264.003 593.367 285.298C593.648 288.745 592.849 292.915 592.08 296.932C590.289 306.384 588.41 316.17 599.672 318.825Z" fill="white" fill-opacity="0.2"/>
<path d="M288.226 519C284.482 524.31 279.82 530.898 281.433 535.457C282.084 537.32 283.742 538.71 286.347 539.586C286.835 539.753 287.382 539.836 287.96 539.836C293.672 539.836 302.729 531.538 310.721 524.226C315.797 519.57 320.606 515.177 323.492 513.94C337.285 508.061 356.316 505.267 373.098 502.792C379.728 501.819 385.988 500.902 391.76 499.832C404.931 497.413 417.643 496.176 429.557 496.176C468.537 496.176 501.258 509.353 526.831 535.332C529.702 538.251 533.86 539.725 539.232 539.725C555.925 539.725 584.562 524.463 604.718 496.176C616.779 479.26 634.301 444.663 616.084 403.115C608.788 386.463 597.94 378.707 581.942 378.707C569.777 378.707 555.896 382.905 539.824 387.77C520.053 393.761 497.632 400.544 473.51 400.544C454.73 400.544 437.489 396.471 420.796 388.117C369.295 362.319 367.8 315.267 372.24 277.154C373.972 262.336 371.16 250.604 364.13 243.224C359.158 238.011 352.395 235.259 344.551 235.259C329.693 235.259 311.15 246.087 304.461 266.798C298.171 286.286 313.088 304.008 330.359 324.525C349.849 347.654 371.929 373.87 367.638 408.856C365.506 426.203 358.773 442.842 349.598 453.378C342.642 461.37 336.5 462.079 329.989 462.83C325.016 463.4 319.881 463.998 313.858 467.584C309.255 470.322 307.82 474.992 306.296 479.927C305.245 483.332 304.15 486.849 301.945 489.74C300.731 491.325 298.615 491.672 296.395 492.034C293.45 492.52 290.105 493.062 288.344 496.635C287.116 499.123 288.744 502.056 290.313 504.891C291.63 507.254 292.976 509.701 292.577 511.73C292.207 513.37 290.357 515.984 288.226 519ZM291.023 504.53C289.484 501.75 288.019 499.109 289.07 496.982C290.653 493.785 293.628 493.299 296.499 492.826C298.807 492.451 301.19 492.062 302.596 490.213C304.89 487.211 306 483.624 307.08 480.163C308.56 475.368 309.966 470.85 314.287 468.279C320.147 464.79 325.194 464.206 330.063 463.636C336.752 462.858 343.056 462.135 350.234 453.892C359.498 443.245 366.32 426.44 368.466 408.953C372.788 373.634 350.589 347.279 331.01 324.024C313.888 303.689 299.088 286.119 305.26 267.034C311.83 246.699 329.989 236.065 344.536 236.065C352.128 236.065 358.684 238.72 363.479 243.752C370.346 250.952 373.084 262.461 371.382 277.056C366.912 315.42 368.437 362.792 420.381 388.812C437.208 397.236 454.582 401.336 473.51 401.336C497.765 401.336 520.245 394.525 540.076 388.52C556.073 383.669 569.896 379.485 581.927 379.485C597.747 379.485 608.033 386.866 615.284 403.393C633.354 444.607 615.965 478.912 604.008 495.703C584.724 522.739 555.926 538.905 539.217 538.905C534.112 538.905 530.146 537.515 527.452 534.776C501.717 508.63 468.774 495.37 429.557 495.37C417.599 495.37 404.827 496.607 391.597 499.039C385.84 500.096 379.58 501.013 372.965 501.986C356.124 504.46 337.048 507.268 323.137 513.19C320.118 514.482 315.486 518.722 310.129 523.629C302.255 530.843 293.332 539.016 287.96 539.016C287.486 539.016 287.042 538.946 286.642 538.821C284.275 538.015 282.839 536.834 282.262 535.193C280.782 531.009 285.311 524.588 288.951 519.431C291.141 516.331 293.021 513.662 293.376 511.883C293.82 509.59 292.399 507.018 291.023 504.53Z" fill="white" fill-opacity="0.2"/>
<path d="M645.904 424.132C647.813 425.271 650.891 425.897 654.605 425.897C657.906 425.897 661.813 425.383 665.971 424.187V423.172C661.813 424.396 657.906 424.924 654.605 424.924C651.142 424.924 648.183 424.34 646.466 423.311C637.764 418.099 633.931 408.883 629.861 399.139C626.354 390.73 622.714 382.028 615.669 375.899L615.654 375.607L615.344 375.621C607.234 368.907 596.327 365.64 581.972 365.64C567.972 365.64 553.247 368.796 541.422 371.325C533.342 373.063 526.357 374.55 521.858 374.55C519.224 374.55 517.611 374.036 516.945 372.993C516.057 371.603 516.723 368.976 518.913 365.223C529.139 347.682 549.799 305.87 548.363 288.565C547.239 274.915 540.253 260.806 533.49 247.171C523.708 227.419 513.6 207.013 520.955 187.498C529.361 165.244 566.374 125.462 592.701 122.098C594.24 121.904 595.898 121.806 597.629 121.806C614.766 121.806 639.821 131.397 665.941 145.283V144.241C639.806 130.383 614.766 120.833 597.629 120.833C595.853 120.833 594.151 120.931 592.568 121.139C565.9 124.558 528.459 164.716 519.979 187.178C512.476 207.055 522.687 227.655 532.543 247.588C539.262 261.14 546.203 275.165 547.313 288.648C548.585 304.077 530.575 343.178 517.996 364.765C515.554 368.962 514.917 371.742 516.042 373.508C516.901 374.884 518.81 375.537 521.843 375.537C526.461 375.537 533.49 374.036 541.63 372.285C553.41 369.755 568.076 366.613 581.957 366.613C596.134 366.613 606.879 369.838 614.796 376.468C621.766 382.459 625.377 391.119 628.885 399.487C633.028 409.398 636.935 418.752 645.904 424.132Z" fill="white" fill-opacity="0.2"/>
<path d="M309.285 504.389C310.232 504.625 311.934 504.737 314.095 504.737C318.594 504.737 335.302 504.111 361.363 496.021C383.147 489.266 408.631 485.541 433.094 485.541C473.377 485.541 500.133 491.212 534.6 522.195C537.042 524.391 540.328 525.503 544.338 525.503C559.315 525.503 581.972 510.185 595.913 490.628C606.805 475.352 622.64 444.16 606.287 406.867C599.243 390.812 590.408 388.602 581.913 388.602C571.406 388.602 558.264 392.577 543.036 397.192C522.524 403.406 499.26 410.439 473.48 410.439C452.925 410.439 434.056 405.991 415.794 396.845C358.063 367.933 357.279 314.056 361.718 276.054C363.095 264.28 361.141 254.967 356.243 249.838C353.298 246.752 349.346 245.182 344.522 245.182C333.556 245.182 319.733 253.591 314.539 269.673C309.848 284.199 323.182 300.031 338.617 318.365C358.344 341.787 382.896 370.935 378.101 409.98C376.724 421.17 373.557 431.803 368.659 441.589C360.86 457.171 350.56 470.39 338.025 480.884C329.752 487.806 321.45 492.658 315.397 496.188C309.877 499.413 306.548 501.345 306.784 502.832C306.888 503.513 307.687 504 309.285 504.389ZM315.634 496.563C321.702 493.019 330.019 488.168 338.321 481.218C350.9 470.682 361.245 457.421 369.073 441.797C374.001 431.97 377.183 421.281 378.56 410.064C383.369 370.838 358.758 341.606 338.972 318.129C323.611 299.892 310.351 284.143 314.968 269.826C320.103 253.939 333.719 245.626 344.522 245.626C349.213 245.626 353.046 247.142 355.917 250.144C360.742 255.19 362.636 264.391 361.289 276.04C356.849 314.167 357.634 368.211 415.602 397.248C433.938 406.436 452.88 410.898 473.495 410.898C499.349 410.898 522.643 403.85 543.199 397.623C558.382 393.022 571.48 389.061 581.928 389.061C590.274 389.061 598.947 391.243 605.887 407.061C622.151 444.174 606.39 475.227 595.558 490.434C581.928 509.56 558.945 525.114 544.353 525.114C540.446 525.114 537.279 524.044 534.911 521.917C518.203 506.905 502.664 497.356 485.986 491.865C471.631 487.153 455.81 485.138 433.079 485.138C408.557 485.138 383.029 488.863 361.2 495.632C335.213 503.694 318.564 504.32 314.08 504.32C311.964 504.32 310.292 504.195 309.389 503.972C308.027 503.639 307.287 503.235 307.213 502.763C307.036 501.581 310.632 499.469 315.634 496.563Z" fill="white" fill-opacity="0.2"/>
<path d="M344.521 254.787C336.589 254.787 327.873 262.321 325.016 269.091C323.122 273.58 324.572 281.239 328.879 289.607C332.934 297.488 338.35 303.549 342.346 304.675C342.953 304.841 343.574 304.939 344.166 304.939C344.832 304.939 345.498 304.828 346.135 304.619C351.285 302.937 351.166 299.963 350.915 293.457C350.752 289.454 350.545 283.978 351.418 276.458C352.602 266.352 350.915 258.652 348.636 256.275C347.91 255.496 346.904 254.787 344.521 254.787ZM350.678 276.374C349.79 283.95 350.012 289.454 350.175 293.485C350.426 300.004 350.53 302.451 345.883 303.966C344.803 304.313 343.678 304.341 342.538 304.021C338.735 302.951 333.496 297.044 329.53 289.315C325.312 281.128 323.877 273.664 325.697 269.355C328.464 262.794 336.87 255.496 344.521 255.482C346.608 255.482 347.466 256.08 348.088 256.72C350.249 258.999 351.832 266.477 350.678 276.374Z" fill="white" fill-opacity="0.2"/>
<path d="M354.629 486.793C356.006 486.793 357.767 486.459 359.602 485.862C380.321 479.106 404.354 475.826 433.079 475.826C468.848 475.826 504.292 478.898 544.56 516.094C545.714 517.164 547.239 517.707 549.074 517.707C560.336 517.707 581.143 497.44 587.314 485.222C587.877 484.11 588.484 482.929 589.135 481.692C596.993 466.568 610.135 441.243 596.697 410.607C591.325 398.361 586.323 398.361 581.898 398.361C573.019 398.361 560.587 402.128 546.203 406.479C524.966 412.914 500.888 420.198 473.48 420.198C450.024 420.198 431.052 416.153 411.931 407.076C408.971 405.672 406.13 404.13 403.614 402.781C398.583 400.071 394.616 397.93 392.056 397.93C390.058 397.93 389.082 399.237 389.037 401.933C389.037 402.364 389.096 403.045 389.2 404.004C391.938 430.387 381.06 455.017 356.879 477.216C352.661 481.094 350.87 483.874 351.566 485.486C351.951 486.334 353.002 486.793 354.629 486.793ZM357.19 477.508C372.743 463.232 382.94 447.748 387.483 431.471C391.139 418.391 390.088 408.272 389.644 403.963C389.54 403.018 389.481 402.336 389.481 401.933C389.526 398.722 390.976 398.347 392.056 398.347C394.498 398.347 398.627 400.571 403.392 403.143C405.908 404.505 408.764 406.034 411.739 407.452C430.918 416.556 449.95 420.629 473.48 420.629C500.962 420.629 525.07 413.331 546.351 406.882C560.706 402.531 573.107 398.778 581.913 398.778C586.19 398.778 591.044 398.778 596.297 410.76C609.646 441.215 596.564 466.429 588.735 481.497C588.084 482.748 587.477 483.916 586.915 485.042C580.788 497.176 560.188 517.29 549.074 517.29C547.357 517.29 545.936 516.789 544.871 515.802C526.165 498.525 506.793 487.21 485.675 481.205C466.85 475.854 449.373 475.409 433.079 475.409C404.31 475.409 380.232 478.703 359.454 485.472C357.663 486.056 355.947 486.376 354.629 486.376C353.623 486.376 352.35 486.195 351.98 485.333C351.64 484.513 351.847 482.414 357.19 477.508Z" fill="white" fill-opacity="0.2"/>
<path d="M275.099 -44.591H274.019C271.74 -37.0989 270.141 -28.8979 269.209 -19.8768C267.566 -4.19759 266.116 16.3327 269.535 36.1125C272.021 50.5407 277.023 56.9625 285.74 56.9625C291.304 56.9625 297.771 54.4327 305.274 51.4859C310.484 49.4426 315.87 47.3437 321.612 45.8147C322.16 45.6618 322.708 45.5228 323.27 45.3838C339.652 41.2555 358.122 40.6717 377.715 43.6602C382.969 44.4664 388.297 45.8425 393.462 47.1769C400.98 49.1229 408.749 51.1384 416.637 51.472C420.914 51.6527 423.962 51.2357 426.108 50.2349C432.398 47.2881 429.334 39.935 426.108 32.1509C424.199 27.55 422.216 22.7823 421.891 18.515C420.159 -4.16979 433.656 -24.8391 451.489 -44.591H450.127C432.427 -24.8808 419.123 -4.19759 420.869 18.5845C421.21 23.0047 423.208 27.8419 425.161 32.5124C428.358 40.1991 431.11 46.8294 425.664 49.3731C423.696 50.2905 420.721 50.6797 416.696 50.5129C408.927 50.1932 401.216 48.1916 393.758 46.2595C388.578 44.9112 383.221 43.5212 377.908 42.715C358.166 39.7126 339.549 40.3103 323.033 44.4664C322.471 44.6054 321.923 44.7444 321.361 44.8973C315.545 46.4402 310.128 48.5669 304.904 50.6102C297.52 53.5014 291.126 56.0034 285.769 56.0034C277.659 56.0034 272.968 49.8179 270.585 35.9596C267.182 16.2771 268.632 -4.16979 270.26 -19.7795C271.177 -28.8423 272.79 -37.085 275.099 -44.591Z" fill="white" fill-opacity="0.2"/>
<path d="M261.824 344.387C260.833 343.54 259.945 343.136 259.116 343.136C257.044 343.136 255.594 345.611 253.404 349.35C251.125 353.228 248.017 358.538 242.63 363.917L241.047 365.488C234.875 371.631 232.049 374.439 232.744 375.954C233.055 376.635 234.017 376.941 235.837 376.941C237.391 376.941 239.67 376.733 243.474 376.232C245.042 376.024 246.641 375.927 248.224 375.927C261.055 375.927 271.755 382.682 279.568 387.617C284.141 390.508 287.752 392.787 290.342 392.787C291.422 392.787 292.31 392.384 292.976 391.578C301.175 381.709 272.509 353.492 261.824 344.387ZM292.399 391.161C291.881 391.8 291.2 392.106 290.342 392.106C287.974 392.106 284.452 389.882 279.983 387.047C272.095 382.057 261.292 375.232 248.224 375.232C246.611 375.232 244.968 375.343 243.37 375.551C239.611 376.052 237.347 376.26 235.837 376.26C234.417 376.26 233.603 376.066 233.425 375.69C232.922 374.606 236.37 371.173 241.594 365.974L243.178 364.403C248.624 358.969 251.776 353.603 254.055 349.697C256.127 346.167 257.488 343.845 259.131 343.845C259.767 343.845 260.492 344.193 261.336 344.916C274.596 356.216 299.665 382.39 292.399 391.161Z" fill="white" fill-opacity="0.2"/>
<path d="M262.031 355.98C256.851 355.98 250.177 363.653 250.147 367.294C250.132 368.782 251.124 369.657 252.855 369.685C260.492 369.81 268.557 374.356 274.447 377.678C277.94 379.638 280.456 381.069 281.95 381.069C282.424 381.069 282.809 380.93 283.075 380.652C283.415 380.305 283.549 379.777 283.489 379.04C282.942 372.354 269.43 358.968 263.955 356.397C263.363 356.119 262.726 355.98 262.031 355.98ZM282.453 379.109C282.498 379.693 282.379 379.916 282.305 379.985C282.276 380.013 282.202 380.096 281.935 380.096C280.722 380.096 278.058 378.595 274.965 376.844C268.971 373.466 260.773 368.851 252.87 368.726C251.701 368.712 251.168 368.267 251.183 367.308C251.213 364.056 257.413 356.953 262.031 356.953C262.564 356.953 263.052 357.05 263.481 357.259C269.386 360.039 281.965 373.049 282.453 379.109Z" fill="white" fill-opacity="0.2"/>
<path d="M243.725 229.906C244.998 229.906 246.019 228.21 247.01 224.416C250.725 210.224 262.993 191.445 282.054 181.465C301.338 171.359 314.183 168.732 321.094 167.328C324.528 166.633 326.244 166.272 326.659 165.424C326.821 165.104 326.762 164.715 326.511 164.27C325.179 161.991 301.293 149.439 266.945 146.826L265.494 146.714C262.401 146.478 259.723 146.27 257.162 146.27C248.194 146.27 240.972 148.619 224.101 162.004C221.438 164.117 218.715 166.077 216.08 167.981C207.926 173.861 200.882 178.921 201.341 184.689C201.696 189.109 206.357 193.502 216.006 198.492C226.691 204.024 233.203 215.005 237.509 222.261C240.218 226.862 242.023 229.906 243.725 229.906ZM216.184 198.131C206.801 193.279 202.081 188.873 201.74 184.661C201.296 179.129 208.252 174.125 216.317 168.329C218.951 166.425 221.689 164.465 224.353 162.338C241.106 149.036 248.268 146.701 257.118 146.701C259.664 146.701 262.327 146.909 265.42 147.145L266.871 147.257C300.435 149.8 324.824 162.31 326.082 164.479C326.333 164.923 326.289 165.132 326.215 165.257C325.889 165.91 324.039 166.3 320.961 166.925C314.035 168.343 301.145 170.97 281.803 181.103C262.638 191.153 250.281 210.057 246.552 224.332C245.634 227.807 244.702 229.503 243.695 229.503C242.245 229.503 240.306 226.223 237.835 222.08C233.543 214.755 226.987 203.718 216.184 198.131Z" fill="white" fill-opacity="0.2"/>
<path d="M246.521 253.773C247.809 253.773 248.697 252.327 249.318 249.214C253.166 230.073 261.498 202.968 289.335 188.512C297.933 184.036 307.656 180.506 319.036 177.684C321.33 177.114 323.772 175.571 326.155 174.07C329.218 172.124 332.4 170.123 335.33 170.123C335.671 170.123 336.011 170.15 336.322 170.206C337.964 170.484 339.193 171.374 340.377 172.235C341.709 173.208 342.966 174.126 344.713 174.126C345.364 174.126 346.045 174.001 346.77 173.723C348.013 173.264 348.664 172.36 349.286 171.485C350.174 170.248 351.002 169.08 353.518 169.289C356.019 169.483 357.366 171.276 358.787 173.167C359.778 174.487 360.814 175.863 362.279 176.628C363.345 177.184 365.269 177.781 366.971 177.781C368.154 177.781 368.998 177.49 369.472 176.906C369.915 176.35 370.004 175.557 369.708 174.571C368.732 171.29 361.258 168.232 356.3 166.203C354.835 165.605 353.577 165.091 352.763 164.688C345.394 161.018 338.038 157.918 331.823 155.361C305.599 144.588 281.684 138.014 258.73 135.261C256.141 134.955 253.906 134.803 251.879 134.803C240.572 134.803 231.811 139.445 214.378 154.68C210.101 158.419 205.691 161.63 201.443 164.729C191.913 171.679 184.38 177.17 184.558 184.078C184.706 189.527 189.737 195.337 200.422 202.357C217.619 213.657 229.029 230.824 236.591 242.18C241.208 249.158 244.287 253.773 246.521 253.773ZM200.644 201.981C190.093 195.045 185.105 189.332 184.972 184.023C184.795 177.323 192.253 171.888 201.695 165.007C205.957 161.894 210.367 158.683 214.659 154.93C232.003 139.779 240.69 135.164 251.864 135.164C253.876 135.164 256.096 135.317 258.656 135.623C281.565 138.361 305.436 144.936 331.616 155.694C337.831 158.252 345.172 161.352 352.527 165.007C353.355 165.424 354.628 165.939 356.093 166.536C360.962 168.524 368.332 171.54 369.25 174.626C369.501 175.488 369.457 176.155 369.087 176.6C368.613 177.184 367.651 177.309 366.941 177.309C365.402 177.309 363.522 176.753 362.472 176.197C361.095 175.488 360.104 174.154 359.127 172.861C357.706 170.97 356.241 169.024 353.533 168.802C350.751 168.566 349.818 169.914 348.901 171.193C348.279 172.055 347.702 172.861 346.592 173.278C345.911 173.528 345.305 173.653 344.698 173.653C343.114 173.653 341.901 172.777 340.628 171.86C339.4 170.97 338.127 170.039 336.381 169.761C336.041 169.706 335.671 169.678 335.315 169.678C332.252 169.678 329.026 171.721 325.903 173.695C323.461 175.238 321.138 176.711 318.933 177.253C307.508 180.075 297.77 183.633 289.128 188.123C261.128 202.662 252.752 229.893 248.889 249.116C248.312 251.952 247.542 253.342 246.521 253.342C244.523 253.342 241.342 248.546 236.931 241.916C229.354 230.546 217.9 213.338 200.644 201.981Z" fill="white" fill-opacity="0.2"/>
<path d="M301.19 428.176C311.313 427.092 320.843 420.559 325.49 411.538C329.723 403.295 332.016 389.312 318.875 369.518C313.237 361.012 307.08 352.435 301.131 344.137C284.112 320.41 268.04 297.989 261.396 275.499C253.892 250.062 259.916 229.073 280.368 209.46C298.082 192.474 321.48 182.73 344.581 182.73C361.94 182.73 377.435 188.471 388.194 198.882C400.018 210.321 405.938 227.071 405.286 247.296C405.138 251.994 404.902 256.845 404.65 261.988C403.762 280.252 402.741 300.95 405.878 318.172C409.489 337.979 418.058 350.211 432.058 355.577C439.561 358.454 446.664 359.899 453.191 359.899C465.045 359.899 475.138 355.035 482.375 345.847C494.673 330.209 497.617 303.438 489.715 279.224C472.74 227.266 431.925 196.255 371.589 163.034C325.756 137.805 287.042 130.021 252.043 125.365C249.438 125.017 246.952 124.836 244.658 124.836C230.036 124.836 223.081 131.828 214.275 140.682C210.886 144.088 207.394 147.591 203.043 151.191C198.041 155.319 193.69 157.835 189.842 160.059C183.671 163.617 178.358 166.689 172.483 174.918C160.851 191.251 176.42 201.273 192.891 211.878C201.593 217.48 210.605 223.276 215.43 230.143C245.738 273.275 233.514 319.284 211.952 347.959C205.796 356.16 196.798 363.903 187.267 372.09C175.62 382.112 163.574 392.467 156.678 404.046C153.718 409.022 152.874 412.4 154.103 414.374C155.005 415.819 157.003 416.514 160.185 416.514C165.868 416.514 174.895 414.304 185.358 411.733C200.024 408.146 218.271 403.671 234.402 403.671C242.941 403.671 250.267 404.949 256.171 407.465C262.047 409.981 267.019 413.609 271.829 417.126C279.746 422.908 287.205 428.357 297.772 428.357C298.911 428.371 300.051 428.301 301.19 428.176ZM256.379 407.09C250.341 404.505 243.163 403.254 234.432 403.254C218.256 403.254 199.965 407.729 185.284 411.33C174.851 413.887 165.853 416.083 160.215 416.097C157.196 416.097 155.331 415.458 154.502 414.151C153.363 412.316 154.206 409.078 157.077 404.241C163.929 392.731 175.946 382.39 187.578 372.396C197.123 364.181 206.136 356.438 212.322 348.196C224.96 331.391 232.419 312.222 233.884 292.762C235.571 270.522 229.489 249.367 215.8 229.907C210.931 222.984 201.889 217.16 193.142 211.531C176.849 201.036 161.458 191.139 172.853 175.141C178.654 166.981 183.952 163.937 190.064 160.407C193.927 158.183 198.293 155.653 203.324 151.497C207.69 147.897 211.197 144.366 214.586 140.96C223.318 132.19 230.229 125.253 244.643 125.253C246.907 125.253 249.379 125.434 251.969 125.768C286.924 130.424 325.594 138.194 371.352 163.381C431.599 196.533 472.341 227.502 489.271 279.321C497.144 303.424 494.229 330.042 482.005 345.583C474.857 354.659 464.897 359.469 453.176 359.469C446.709 359.469 439.665 358.023 432.221 355.173C418.369 349.864 409.889 337.743 406.308 318.088C403.17 300.908 404.191 280.225 405.079 261.988C405.331 256.845 405.568 251.994 405.716 247.296C406.367 226.946 400.418 210.099 388.504 198.576C377.657 188.081 362.058 182.299 344.581 182.299C321.361 182.299 297.846 192.085 280.042 209.154C269.18 219.579 262.476 230.324 259.531 242.027C256.911 252.48 257.37 263.447 260.952 275.596C267.611 298.156 283.698 320.59 300.746 344.359C306.695 352.658 312.852 361.234 318.49 369.727C331.528 389.368 329.264 403.198 325.076 411.343C320.503 420.239 311.105 426.689 301.131 427.745C300.006 427.871 298.881 427.926 297.786 427.926C287.383 427.926 279.968 422.505 272.125 416.778C267.3 413.276 262.298 409.62 256.379 407.09Z" fill="white" fill-opacity="0.2"/>
<path d="M310.898 410.941C314.775 408.286 317.054 404.574 317.646 399.918C319.407 386.254 306.502 366.308 294.915 353.394C280.456 337.27 266.101 320.062 259.071 303.41C258.731 302.59 258.198 300.269 257.532 297.336C255.268 287.439 251.494 270.884 246.019 270.884C245.516 270.884 244.998 271.023 244.494 271.315C242.215 272.58 241.549 275.082 242.437 278.932C243.163 282.087 244.835 285.729 246.315 288.94C247.883 292.332 249.23 295.265 249.201 296.933C249.141 301.228 247.01 303.118 244.938 304.953C243.325 306.385 241.668 307.858 241.061 310.43C240.292 313.738 241.742 316.226 243.148 318.631C244.45 320.855 245.782 323.148 245.368 326.109C244.583 331.544 226.262 351.129 210.116 368.42C196.738 382.724 185.195 395.081 185.387 397.444C185.402 397.624 185.476 397.763 185.594 397.861C186.704 398.722 188.702 399.139 191.736 399.139C196.516 399.139 203.161 398.139 210.871 396.971C220.209 395.567 230.791 393.969 239.981 393.969C247.158 393.969 252.53 394.928 256.393 396.902C258.494 397.972 260.847 399.251 263.319 400.613C274.359 406.632 288.092 414.138 299.724 414.138C304.06 414.124 307.819 413.053 310.898 410.941ZM256.63 396.526C252.693 394.525 247.247 393.538 240.01 393.538C230.791 393.538 220.194 395.136 210.827 396.54C203.146 397.694 196.501 398.695 191.766 398.695C188.85 398.695 186.926 398.305 185.905 397.513C185.89 397.499 185.861 397.471 185.846 397.388C185.668 395.192 197.715 382.32 210.457 368.671C226.662 351.337 245.012 331.697 245.826 326.15C246.27 323.051 244.894 320.702 243.562 318.422C242.127 315.976 240.78 313.668 241.52 310.513C242.082 308.067 243.636 306.704 245.264 305.259C247.395 303.368 249.6 301.408 249.659 296.947C249.689 295.195 248.313 292.22 246.729 288.773C245.264 285.576 243.592 281.962 242.867 278.849C242.023 275.193 242.63 272.844 244.716 271.676C245.146 271.44 245.59 271.315 246.019 271.315C251.139 271.315 255.017 288.301 257.088 297.433C257.784 300.505 258.287 302.715 258.657 303.577C265.701 320.285 280.086 337.521 294.574 353.672C306.103 366.53 318.948 386.338 317.202 399.876C316.61 404.421 314.405 408.035 310.631 410.621C307.627 412.678 303.972 413.707 299.754 413.707C288.255 413.707 274.566 406.242 263.57 400.238C261.099 398.875 258.746 397.597 256.63 396.526Z" fill="white" fill-opacity="0.2"/>
<path d="M305.837 393.496C307.154 382.042 294.101 364.083 287.575 357.175C276.313 345.263 268.455 335.102 263.26 328.388C258.11 321.73 255.269 318.046 253.434 318.046C252.176 318.046 251.48 319.575 251.051 323.342C247.825 351.643 228.334 366.975 216.688 376.121C211.582 380.138 208.223 382.779 208.075 384.961C208.03 385.587 208.267 386.17 208.785 386.671C209.85 387.727 211.523 388.228 214.083 388.228C216.954 388.228 220.58 387.602 224.783 386.879C230.229 385.934 236.415 384.878 242.734 384.878C251.347 384.878 258.288 386.893 263.971 391.035C271.977 396.873 283.816 403.115 293.095 403.115C296.44 403.115 299.296 402.322 301.604 400.738C304.046 399.084 305.467 396.637 305.837 393.496ZM293.08 402.711C283.92 402.711 272.169 396.526 264.237 390.73C258.465 386.518 251.436 384.475 242.734 384.475C236.37 384.475 230.17 385.545 224.694 386.49C220.521 387.213 216.91 387.825 214.083 387.825C211.656 387.825 210.072 387.366 209.111 386.393C208.681 385.962 208.489 385.503 208.519 384.989C208.652 382.987 212.144 380.235 216.969 376.44C228.66 367.239 248.239 351.851 251.48 323.384C251.865 319.979 252.472 318.463 253.419 318.463C255.032 318.463 257.992 322.286 262.89 328.624C268.085 335.352 275.958 345.513 287.22 357.439C293.702 364.306 306.68 382.126 305.378 393.44C305.023 396.456 303.661 398.806 301.323 400.404C299.103 401.947 296.336 402.711 293.08 402.711Z" fill="white" fill-opacity="0.2"/>
<path d="M432.28 279.127C430.755 300.867 437.4 315.837 444.134 322.579C447.212 325.665 450.586 327.374 453.649 327.374C457.956 327.374 461.197 324.191 462.766 318.409C472.873 281.198 438.451 241.973 434.233 238.692C433.02 237.747 432.176 237.622 431.628 238.192C430.637 239.207 430.948 242.529 431.51 248.547C432.161 255.678 433.168 266.451 432.28 279.127ZM432.176 238.664C432.25 238.581 432.324 238.553 432.442 238.553C432.65 238.553 433.049 238.664 433.774 239.234C437.962 242.487 472.089 281.365 462.07 318.242C460.59 323.677 457.616 326.679 453.664 326.679C450.823 326.679 447.626 325.053 444.696 322.106C438.066 315.462 431.525 300.686 433.034 279.169C433.922 266.437 432.931 255.636 432.265 248.492C431.762 243.251 431.406 239.457 432.176 238.664Z" fill="white" fill-opacity="0.2"/>
<path d="M612.769 34.6804C601.196 34.6804 588.38 36.7376 574.794 38.906C558.575 41.5053 541.807 44.188 523.531 44.188C522.184 44.188 520.852 44.1741 519.594 44.1463C518.499 44.1185 517.433 44.0907 516.368 44.0629C513.6 43.9934 510.996 43.9239 508.48 43.9239C492.734 43.9239 482.981 46.9402 476.559 62.8279C472.504 72.8777 467.886 84.2618 456.846 91.6149C453.724 93.6999 450.601 95.4652 447.834 97.0359C441.44 100.664 436.394 103.527 436.202 107.489C436.024 111.131 439.946 115.509 448.899 121.681C457.497 127.602 464.557 130.479 470.506 130.479C471.038 130.479 471.586 130.452 472.104 130.41C480.747 129.659 486.548 122.946 493.888 114.453C497.218 110.588 501.006 106.224 505.446 102.054C524.67 83.9977 548.289 70.8344 573.744 63.9817C584.488 61.0905 595.099 59.617 605.295 59.617C630.483 59.617 649.899 68.1656 665.971 78.0624V77.562C649.899 67.7069 630.468 59.2 605.295 59.2C595.054 59.2 584.399 60.6734 573.625 63.5786C548.097 70.4591 524.404 83.6641 505.135 101.762C500.681 105.946 496.892 110.324 493.548 114.189C486.267 122.598 480.525 129.256 472.074 129.993C471.556 130.035 471.038 130.062 470.52 130.062C464.675 130.062 457.69 127.213 449.166 121.347C440.345 115.259 436.483 110.992 436.646 107.516C436.823 103.777 441.781 100.97 448.07 97.3973C450.838 95.8266 453.975 94.0474 457.113 91.9624C468.271 84.5398 472.903 73.0862 476.988 62.9809C483.322 47.3155 492.941 44.3409 508.495 44.3409C511.011 44.3409 513.615 44.4104 516.368 44.4799C517.419 44.5077 518.499 44.5355 519.594 44.5633C520.867 44.5911 522.184 44.605 523.545 44.605C541.852 44.605 558.649 41.9084 574.883 39.3091C588.439 37.1407 601.255 35.0835 612.783 35.0835C619.473 35.0835 625.303 35.7785 630.646 37.2102C642.115 40.2821 653.866 45.3278 665.986 51.2214V50.7488C653.91 44.8969 642.204 39.879 630.764 36.8071C625.377 35.3893 619.487 34.6804 612.769 34.6804Z" fill="white" fill-opacity="0.2"/>
<path d="M420.825 277.876C419.108 298.962 423.548 316.031 433.315 325.942C438.421 331.127 444.695 333.976 450.985 333.976C459.953 333.976 467.116 328.124 469.262 319.075C475.492 292.61 465.843 268.813 456.668 253.495C445.865 235.508 432.057 222.776 425.398 218.606C422.97 217.091 421.254 216.146 420.218 216.146C419.833 216.146 419.537 216.271 419.315 216.507C418.457 217.411 418.812 219.996 419.507 225.111C420.721 234.174 423.015 251.063 420.825 277.876ZM419.626 216.771C419.759 216.618 419.951 216.549 420.203 216.549C421.121 216.549 422.852 217.508 425.146 218.94C440.167 228.35 480.065 271.218 468.818 318.964C466.731 327.818 459.731 333.545 450.985 333.545C444.814 333.545 438.657 330.737 433.641 325.65C423.962 315.837 419.567 298.879 421.269 277.903C423.459 251.049 421.165 234.132 419.922 225.042C419.3 220.371 418.916 217.536 419.626 216.771Z" fill="white" fill-opacity="0.2"/>
<path d="M412.316 279.237C410.614 305.481 415.956 326.219 427.381 337.617C433.286 343.511 440.449 346.625 448.115 346.625C462.766 346.625 475.167 335.491 479 318.922C484.639 294.486 479.785 270.425 464.586 247.406C449.18 224.096 427.87 209.028 416.534 202.106C410.762 198.589 408.29 197.116 407.343 198.186C406.559 199.076 407.077 201.606 408.083 206.638C410.274 217.577 414.846 240.276 412.316 279.237ZM407.669 198.492C407.787 198.353 407.95 198.298 408.202 198.298C409.4 198.298 411.99 199.882 416.282 202.495C454.049 225.514 490.233 268.187 478.541 318.852C474.768 335.227 462.529 346.222 448.1 346.222C440.567 346.222 433.508 343.15 427.692 337.339C416.356 326.025 411.058 305.397 412.745 279.265C415.276 240.248 410.703 217.521 408.498 206.596C407.58 201.995 407.033 199.215 407.669 198.492Z" fill="white" fill-opacity="0.2"/>
<path d="M242.008 192.03C246.196 192.03 249.2 188.235 252.412 182.536C258.021 172.583 269.741 167.76 276.031 165.175C279.213 163.868 280.411 163.382 280.263 162.548C280.13 161.853 279.316 161.561 274.965 161.283C261.853 160.449 232.433 172.194 229.044 181.035C228.26 183.078 228.837 184.941 230.731 186.4C235.763 190.348 239.137 192.03 242.008 192.03ZM230.006 181.382C233.099 173.306 260.448 162.228 273.545 162.228C274.004 162.228 274.447 162.242 274.877 162.27C277.437 162.437 278.576 162.603 279.035 162.742C278.473 163.104 277.023 163.701 275.602 164.285C269.194 166.912 257.266 171.819 251.479 182.077C247.839 188.527 245.175 191.043 241.993 191.043C239.403 191.043 236.222 189.43 231.368 185.663C229.814 184.454 229.37 183.064 230.006 181.382Z" fill="white" fill-opacity="0.2"/>
<path d="M254.883 191.529C264.961 174.279 283.386 168.261 298.304 164.938C299.739 164.619 299.872 163.924 299.828 163.548C299.473 160.741 285.502 155.361 264.651 155.361C262.298 155.361 259.885 155.431 257.503 155.57C247.972 156.112 225.507 168.594 217.442 177.838C215.34 180.242 214.393 182.23 214.615 183.773C215.177 187.609 218.803 189.305 223.021 191.279C227.475 193.364 232.522 195.727 234.993 201.231C236.429 204.442 238.308 206.069 240.587 206.069C244.435 206.055 249.245 201.176 254.883 191.529ZM235.659 200.953C233.099 195.213 227.919 192.78 223.347 190.64C219.321 188.763 215.843 187.137 215.34 183.662C215.148 182.341 216.065 180.479 218.004 178.269C225.981 169.136 248.165 156.793 257.547 156.265C259.93 156.126 262.312 156.056 264.651 156.056C285.147 156.056 298.807 161.38 299.088 163.632C299.132 163.993 298.511 164.188 298.126 164.271C283.061 167.621 264.458 173.709 254.232 191.196C245.737 205.721 239.359 209.238 235.659 200.953Z" fill="white" fill-opacity="0.2"/>
<path d="M449.595 310.721C449.61 310.721 449.61 310.721 449.595 310.721C450.379 310.721 451.06 310.207 451.637 309.206C454.523 304.133 454.464 286.563 446.813 275.874C445.821 274.484 444.385 274.665 443.29 276.416C440.419 281.059 439.206 295.82 447.034 308.706C447.863 310.054 448.722 310.721 449.595 310.721ZM444.208 276.916C444.593 276.305 444.992 275.93 445.303 275.93C445.569 275.93 445.836 276.235 445.969 276.43C453.28 286.66 453.442 303.994 450.734 308.761C450.364 309.401 449.965 309.762 449.61 309.762C449.151 309.762 448.544 309.206 447.952 308.233C440.434 295.848 441.514 281.267 444.208 276.916Z" fill="white" fill-opacity="0.2"/>
<path d="M545.862 353.381C546.913 354.812 549.503 355.424 554.49 355.424C557.613 355.424 561.327 355.188 565.634 354.924C570.961 354.59 577.014 354.215 583.259 354.215C603.046 354.215 616.394 358.162 625.289 366.669C633.561 372.646 638.119 382.39 642.145 390.994C647.043 401.447 651.261 410.468 660.599 410.468C661.591 410.468 662.641 410.357 663.707 410.148C664.417 410.009 665.172 409.829 665.956 409.606V408.883C665.128 409.134 664.314 409.328 663.559 409.481C662.538 409.676 661.531 409.787 660.599 409.787C651.749 409.787 647.62 400.96 642.825 390.73C638.756 382.056 634.153 372.229 625.777 366.169C616.764 357.551 603.253 353.534 583.259 353.534C576.985 353.534 570.932 353.909 565.575 354.243C561.283 354.507 557.568 354.743 554.475 354.743C549.888 354.743 547.342 354.187 546.469 353.005C545.995 352.352 545.981 351.476 546.439 350.309C555.852 326.665 563.74 296.738 562.97 287.522C561.638 271.385 554.091 256.136 546.78 241.388C537.841 223.36 529.406 206.333 534.763 192.127C542.222 172.389 576.259 138.125 594.684 135.762C595.572 135.651 596.564 135.595 597.629 135.595C611.984 135.595 637.276 145.256 665.942 161.213V160.407C637.305 144.505 612.029 134.9 597.629 134.9C596.519 134.9 595.498 134.956 594.581 135.081C575.949 137.472 541.571 172.013 534.053 191.904C528.592 206.374 537.086 223.527 546.084 241.694C553.365 256.386 560.883 271.565 562.215 287.578C562.881 295.654 555.822 324.705 545.729 350.059C545.196 351.435 545.241 352.533 545.862 353.381Z" fill="white" fill-opacity="0.2"/>
<path d="M612.769 44.2719C602.069 44.2719 589.652 46.2596 576.511 48.3585C559.877 51.0273 542.666 53.7795 523.53 53.7795C522.125 53.7795 520.733 53.7656 519.357 53.7378L516.101 53.6544C513.408 53.5849 510.877 53.5154 508.495 53.5154C487.761 53.5154 486.74 64.2184 485.645 75.5469C485.053 81.7602 484.431 88.1959 480.791 93.6586C479.489 95.6046 475.996 98.0788 472.281 100.692C464.394 106.252 455.455 112.563 459.747 118.47C461.597 121.014 463.816 122.293 466.347 122.293C467.738 122.293 469.248 121.903 470.816 121.139C477.816 117.747 485.29 107.712 491.298 99.6495C494.702 95.0764 497.647 91.1288 499.26 90.2114C500.947 89.2662 502.841 89.1411 504.454 89.1411C505.076 89.1411 505.712 89.1689 506.349 89.1828C507 89.2106 507.651 89.2245 508.287 89.2245C510.729 89.2245 513.304 88.9465 515.628 86.9588C518.425 84.568 518.78 81.4544 519.12 78.452C519.431 75.7554 519.712 73.2117 521.621 71.0572C527.393 64.5798 547.638 60.0484 561.031 57.0599C564.968 56.1842 568.371 55.4197 570.917 54.7386C582.564 51.5972 594.137 50.0126 605.28 50.0126C630.024 50.0126 649.81 57.6298 665.956 66.7482V65.9281C649.796 56.8653 630.009 49.3176 605.28 49.3176C594.063 49.3176 582.431 50.9161 570.71 54.0714C568.194 54.7525 564.79 55.517 560.854 56.3927C546.558 59.5897 526.979 63.9682 521.059 70.6263C519.002 72.9337 518.691 75.7137 518.38 78.3964C518.04 81.3988 517.714 84.2344 515.125 86.4584C512.979 88.2932 510.567 88.5434 508.287 88.5434C507.651 88.5434 507 88.5156 506.364 88.5017C505.727 88.4739 505.076 88.46 504.44 88.46C502.723 88.46 500.71 88.599 498.86 89.6276C497.114 90.6145 494.273 94.4231 490.662 99.2603C485.009 106.836 477.284 117.219 470.446 120.527C466.273 122.543 462.988 121.751 460.309 118.081C456.417 112.729 465.06 106.627 472.681 101.262C476.603 98.4958 479.992 96.105 481.368 94.0478C485.112 88.4461 485.734 81.927 486.341 75.6303C487.436 64.1489 488.398 54.2243 508.45 54.2243C510.833 54.2243 513.364 54.2938 516.042 54.3633L519.298 54.4467C520.689 54.4745 522.08 54.4884 523.486 54.4884C542.695 54.4884 559.921 51.7223 576.6 49.0535C589.712 46.9546 602.084 44.9669 612.724 44.9669C618.422 44.9669 623.32 45.5368 627.701 46.7183C639.792 49.957 652.563 55.7255 665.927 62.3836V61.6052C652.652 55.0027 639.954 49.2898 627.908 46.065C623.498 44.8557 618.525 44.2719 612.769 44.2719Z" fill="white" fill-opacity="0.2"/>
<path d="M568.208 335.268C570.961 338.979 576.777 339.397 584.812 339.98C585.686 340.05 586.588 340.105 587.506 340.175C590.051 340.369 592.715 340.453 595.527 340.55C608.609 340.967 623.438 341.454 636.831 352.907L636.994 353.046C644.423 359.148 648.833 369.907 652.74 379.401C656.662 388.964 660.065 397.221 665.452 397.221C665.615 397.221 665.793 397.193 665.955 397.179V396.762C665.793 396.776 665.615 396.817 665.452 396.817C660.361 396.817 657.032 388.686 653.154 379.262C649.233 369.726 644.793 358.912 637.29 352.741L637.127 352.602C623.616 341.051 608.698 340.564 595.542 340.147C592.73 340.05 590.066 339.966 587.536 339.772C586.618 339.702 585.715 339.633 584.842 339.577C576.925 339.007 571.197 338.59 568.563 335.046C566.077 331.682 566.417 325.371 569.703 314.613C572.737 304.646 573.876 295.542 573.151 286.785C571.671 268.923 563.724 252.883 556.043 237.356C548.022 221.149 540.43 205.845 544.396 195.337C550.997 177.837 582.874 146.951 596.075 145.269C596.371 145.227 596.874 145.185 597.643 145.185C608.668 145.185 633.62 153.803 665.955 172.416V171.929C633.634 153.373 608.698 144.768 597.643 144.768C596.859 144.768 596.326 144.81 596.015 144.852C582.711 146.562 550.612 177.614 543.982 195.198C539.957 205.873 547.578 221.246 555.644 237.537C563.31 253.022 571.242 269.021 572.707 286.813C573.432 295.528 572.307 304.591 569.274 314.502C565.929 325.524 565.603 331.751 568.208 335.268Z" fill="white" fill-opacity="0.2"/>
<path d="M298.363 460.967C320.399 458.604 346.638 434.015 353.667 415.222C365.876 382.598 344.166 356.327 323.166 330.918C302.906 306.399 283.757 283.241 293.065 255.038C301.175 230.477 327.369 217.216 347.895 217.216C358.965 217.216 368.525 220.9 374.844 227.599C382.348 235.55 385.293 247.629 383.369 262.53C376.754 313.724 374.785 369.727 435.55 386.24C442.52 388.131 449.402 389.09 456.017 389.09C481.605 389.09 497.928 375.329 507.118 363.778C524.744 341.635 530.871 308.511 522.346 281.365C515.124 258.346 500.902 236.009 478.896 213.102C446.176 179.047 401.601 149.773 342.642 123.586L340.096 122.446C315.293 111.423 289.647 100.025 262.638 93.7422C261.04 93.3669 259.264 92.9221 257.37 92.4495C249.023 90.3645 238.649 87.7791 229.74 87.7791C226.173 87.7791 223.081 88.21 220.565 89.0579C216.717 90.3506 214.556 92.8248 212.455 95.2157C210.886 96.9949 209.273 98.8436 206.964 100.164C205.47 101.026 202.539 102.082 199.461 103.208C194.459 105.015 189.294 106.892 187.666 108.699C184.514 112.174 185.387 114.259 186.216 116.288C186.823 117.734 187.385 119.11 186.645 121.153L186.068 122.765C181.584 135.15 181.584 135.15 171.254 137.958C169.256 138.5 166.77 139.181 163.825 140.057C155.316 142.601 151.823 146.521 148.449 150.315C145.859 153.234 143.403 155.987 138.77 158.211C138.652 158.197 138.504 158.197 138.356 158.197C133.028 158.197 92.6271 160.699 89.5193 170.026C88.6906 172.541 90.4961 175.266 94.921 178.143C100.456 181.743 104.644 182.16 107.323 182.16C108.625 182.16 109.809 182.049 110.948 181.952C111.925 181.868 112.843 181.785 113.716 181.785C116.972 181.785 120.257 182.647 124.756 193.086C125.866 195.657 126.724 197.756 127.434 199.507C130.927 208.098 131.045 208.209 139.91 211.767C142.115 212.643 144.853 213.741 148.331 215.256C159.755 220.205 162.094 225.82 165.054 232.937C166.622 236.69 168.398 240.957 171.758 245.753C175.354 250.882 179.571 255.01 183.656 259C190.893 266.075 197.73 272.761 199.905 283.922C203.679 303.257 192.506 321.716 179.867 338.786C173.741 347.07 161.147 356.703 147.813 366.905C125.17 384.225 99.5087 403.865 99.4199 422.047C99.3607 432.43 102.202 440.395 107.855 445.732C114.012 451.543 123.365 454.364 136.462 454.364C155.449 454.364 178.772 448.346 199.358 443.05C215.563 438.88 229.562 435.266 238.501 435.266C240.529 435.266 242.245 435.46 243.592 435.836C252.22 438.24 259.057 443.383 265.687 448.359C274.463 454.962 282.765 461.189 294.619 461.189C295.877 461.175 297.12 461.106 298.363 460.967ZM243.932 434.89C242.452 434.473 240.691 434.279 238.545 434.279C229.459 434.279 215.4 437.907 199.121 442.091C178.595 447.373 155.331 453.377 136.491 453.377C123.69 453.377 114.574 450.653 108.625 445.037C103.179 439.894 100.441 432.166 100.485 422.047C100.574 404.324 126.029 384.836 148.493 367.656C161.887 357.412 174.525 347.737 180.741 339.342C193.497 322.092 204.789 303.424 200.941 283.742C198.707 272.288 191.766 265.505 184.425 258.318C180.371 254.357 176.182 250.256 172.645 245.211C169.345 240.499 167.584 236.301 166.045 232.576C162.996 225.25 160.584 219.482 148.789 214.367C145.297 212.851 142.544 211.753 140.339 210.864C131.785 207.43 131.785 207.43 128.411 199.146C127.701 197.395 126.842 195.282 125.733 192.71C121.426 182.744 118.067 180.798 113.731 180.798C112.813 180.798 111.866 180.881 110.86 180.979C109.75 181.076 108.595 181.187 107.337 181.187C104.585 181.187 100.767 180.756 95.5277 177.351C91.5172 174.752 89.8449 172.389 90.5257 170.331C93.2191 162.228 130.883 159.184 138.371 159.184C138.548 159.184 138.667 159.184 138.741 159.197L138.859 158.753L139.081 159.184C143.995 156.848 146.673 153.86 149.248 150.955C152.682 147.104 155.923 143.463 164.151 141.002C167.081 140.127 169.552 139.459 171.55 138.917C182.309 135.998 182.442 135.845 187.06 123.099L187.637 121.487C188.495 119.11 187.8 117.442 187.193 115.954C186.394 114.036 185.713 112.382 188.466 109.352C189.931 107.74 195.199 105.821 199.846 104.139C202.983 103 205.943 101.929 207.527 101.026C209.983 99.622 211.656 97.7177 213.269 95.869C215.37 93.4781 217.353 91.2124 220.92 90.017C223.332 89.2108 226.307 88.7938 229.755 88.7938C238.531 88.7938 248.831 91.3653 257.118 93.4365C259.013 93.9091 260.788 94.3539 262.402 94.7292C289.306 100.984 314.908 112.368 339.667 123.363L342.213 124.503C401.039 150.621 445.51 179.825 478.142 213.783C500.044 236.579 514.192 258.791 521.37 281.67C529.805 308.539 523.752 341.315 506.304 363.222C497.247 374.592 481.175 388.145 456.032 388.145C449.52 388.145 442.742 387.199 435.861 385.323C375.88 369.032 377.849 313.474 384.419 262.669C386.388 247.49 383.354 235.147 375.644 226.988C369.132 220.079 359.291 216.285 347.925 216.285C327.029 216.285 300.361 229.782 292.103 254.802C282.632 283.477 302.832 307.928 322.382 331.571C343.204 356.772 364.752 382.835 352.72 414.958C345.779 433.486 319.94 457.742 298.274 460.063C297.061 460.188 295.862 460.258 294.693 460.258C283.194 460.258 275.04 454.128 266.397 447.637C259.678 442.549 252.753 437.351 243.932 434.89Z" fill="white" fill-opacity="0.2"/>
<path d="M323.847 6.00522C328.879 6.00522 334.444 4.85152 339.342 3.82292C341.858 3.29472 344.226 2.80821 346.12 2.55801C349.701 2.09931 353.179 1.91861 356.539 1.73792C363.538 1.36261 370.154 1.00122 375.407 -1.80659C379.64 -4.07229 382.718 -7.7836 384.834 -13.1907C388.638 -22.8929 393.329 -33.7905 399.974 -44.6047H399.456C392.855 -33.8322 388.194 -22.9902 384.405 -13.3297C382.333 -8.03379 379.314 -4.37809 375.17 -2.16799C370.006 0.584213 363.45 0.94561 356.509 1.32091C353.135 1.50161 349.657 1.69621 346.061 2.14101C344.152 2.37731 341.769 2.87771 339.238 3.40591C334.355 4.42061 328.835 5.57432 323.847 5.57432C318.949 5.57432 315.486 4.46232 313.251 2.15491C307.805 -3.44679 310.543 -16.2348 312.008 -23.1153L312.245 -24.1995C313.903 -32.1225 316.581 -38.864 320.355 -44.6047H319.837C316.122 -38.864 313.473 -32.1503 311.816 -24.269L311.579 -23.1848C310.099 -16.2348 307.347 -3.32169 312.941 2.44681C315.249 4.83762 318.816 6.00522 323.847 6.00522Z" fill="white" fill-opacity="0.2"/>
<path d="M438.407 -44.591H437.386C435.55 -42.7562 433.967 -41.0743 432.783 -39.5453C416.46 -18.7092 409.223 0.528419 410.659 19.2656C411.221 26.5492 410.259 31.3726 407.743 34.0136C406.145 35.6955 403.851 36.5017 400.758 36.5017C396.451 36.5017 391.139 34.9588 385.53 33.3325C380.424 31.8452 375.156 30.3162 370.183 29.8019C366.439 29.4127 362.695 29.232 358.714 29.232C346.179 29.232 334.251 31.1085 321.642 33.0962C319.526 33.4298 317.395 33.7634 315.249 34.097L315.086 34.1248C310.662 34.8059 305.645 35.5704 300.761 35.5704C291.526 35.5704 285.622 32.6931 282.691 26.7717C276.579 14.4145 278.296 -0.472382 279.791 -13.594C279.998 -15.3593 280.19 -17.1107 280.383 -18.8343C281.389 -28.4253 283.15 -36.9599 285.755 -44.5771H284.97C282.395 -36.9599 280.649 -28.4531 279.643 -18.9038C279.465 -17.1802 279.258 -15.4288 279.066 -13.6635C277.556 -0.44458 275.825 14.5396 282.025 27.0775C285.089 33.263 291.216 36.2793 300.761 36.2793C305.704 36.2793 310.75 35.5009 315.205 34.8337L315.368 34.8059C317.513 34.4723 319.645 34.1387 321.761 33.8051C334.34 31.8313 346.224 29.9548 358.714 29.9548C362.665 29.9548 366.38 30.1355 370.094 30.5247C375.008 31.0251 380.247 32.5541 385.308 34.0275C390.976 35.6816 396.333 37.2384 400.758 37.2384C404.073 37.2384 406.544 36.3488 408.291 34.514C410.94 31.734 411.961 26.7439 411.384 19.2517C409.963 0.695221 417.155 -18.3895 433.375 -39.1005C434.648 -40.7546 436.379 -42.5894 438.407 -44.591Z" fill="white" fill-opacity="0.2"/>
<path d="M433.596 60.7717C428.579 64.0938 421.713 65.7201 412.597 65.7201C401.897 65.7201 389.91 63.4683 379.358 61.4806C373.128 60.313 367.252 59.201 362.443 58.7284C360.09 58.4921 353.77 57.95 345.986 57.95C331.572 57.95 313.073 59.7848 306.872 68.5279C304.164 72.3226 304.061 77.1042 306.547 82.7198C307.716 85.3608 310.735 86.7925 313.65 88.1825C315.959 89.2807 318.342 90.4204 319.673 92.1023C321.242 94.1039 322.175 96.9118 323.062 99.6362C324.261 103.25 325.49 106.989 328.287 109.199C331.764 111.938 335.568 113.216 340.288 113.216C343.559 113.216 346.904 112.591 350.13 111.993C353.326 111.396 356.627 110.784 359.823 110.784C362.887 110.784 365.55 111.354 367.977 112.521C373.853 115.371 376.339 119.207 378.722 122.905C381.844 127.742 384.789 132.301 394.497 134.442C414.816 138.904 420.396 143.574 433.848 154.847C435.579 156.307 437.444 157.863 439.486 159.545C444.326 163.535 447.907 168.094 451.37 172.5C454.463 176.434 457.645 180.493 461.759 184.218C466.805 188.791 471.571 190.82 476.173 192.78C482.3 195.393 488.101 197.868 493.355 206.347L494.169 207.681C500.784 218.412 507.458 228.35 511.572 228.35C512.238 228.35 512.801 228.114 513.274 227.627C514.754 226.098 515.154 222.054 514.503 215.256C514.118 211.267 511.054 207.709 508.08 204.262C504.883 200.55 501.864 197.034 502.042 193.155C502.264 188.513 505.253 186.219 508.42 183.801C510.744 182.035 513.141 180.201 514.547 177.351C517.921 170.526 518.735 164.424 519.534 158.517C520.629 150.288 521.665 142.532 529.509 133.747C543.523 118.026 563.191 106.155 584.887 100.303C592.109 98.3574 598.798 97.4122 605.324 97.4122C627.493 97.4122 643.387 108.741 660.228 120.722C662.138 122.085 664.061 123.447 666 124.809V123.6C664.269 122.377 662.552 121.167 660.85 119.958C643.876 107.865 627.833 96.4531 605.324 96.4531C598.694 96.4531 591.916 97.4122 584.591 99.386C562.703 105.28 542.857 117.261 528.695 133.135C520.659 142.142 519.608 150.038 518.483 158.405C517.699 164.243 516.9 170.276 513.585 176.948C512.283 179.589 509.974 181.34 507.754 183.05C504.543 185.497 501.228 188.04 500.991 193.128C500.799 197.367 504.084 201.19 507.251 204.887C510.122 208.223 513.082 211.67 513.437 215.354C514.207 223.36 513.348 226.098 512.475 226.974C512.209 227.252 511.913 227.377 511.543 227.377C507.473 227.377 498.756 213.227 495.042 207.194L494.213 205.86C488.797 197.117 482.847 194.587 476.573 191.891C472.044 189.958 467.368 187.957 462.454 183.509C458.414 179.853 455.247 175.822 452.184 171.916C448.691 167.468 445.08 162.867 440.152 158.809C438.11 157.127 436.245 155.57 434.514 154.11C420.914 142.712 415.29 138 394.705 133.483C385.411 131.439 382.569 127.047 379.58 122.39C377.108 118.568 374.563 114.62 368.421 111.646C365.846 110.395 363.035 109.797 359.794 109.797C356.508 109.797 353.149 110.423 349.908 111.02C346.726 111.618 343.426 112.216 340.259 112.216C335.804 112.216 332.208 111.006 328.923 108.421C326.363 106.392 325.164 102.791 324.024 99.3026C323.107 96.5087 322.145 93.6174 320.473 91.4768C319.008 89.6003 316.506 88.4049 314.094 87.2651C311.223 85.9029 308.5 84.6103 307.479 82.3028C305.141 77.0069 305.215 72.5311 307.716 69.0144C313.68 60.6327 331.809 58.8674 345.971 58.8674C353.711 58.8674 359.971 59.4095 362.309 59.6458C367.06 60.1184 372.92 61.2304 379.121 62.3841C389.732 64.3857 401.764 66.6375 412.567 66.6375C421.905 66.6375 428.964 64.9556 434.159 61.5084C447.108 52.9043 443.393 39.9356 439.797 27.3978C435.964 13.9982 431.998 0.139853 447.951 -8.89516C449.86 -9.97936 452.421 -10.5354 455.543 -10.5354C465.089 -10.5354 478.526 -5.64255 491.52 -0.902649C502.841 3.22566 513.526 7.11766 520.481 7.27056C521.488 7.29836 522.479 7.29836 523.486 7.29836C523.486 7.29836 523.486 7.29836 523.5 7.29836C538.447 7.29836 553.557 4.87976 568.179 2.53066C582.77 0.195455 597.851 -2.22315 612.738 -2.22315C623.157 -2.22315 632.569 -1.05555 641.493 1.33525C649.751 3.54536 657.89 6.47826 665.941 9.81426V8.75786C657.994 5.46356 649.943 2.58625 641.774 0.403951C632.747 -2.01465 623.246 -3.19615 612.738 -3.19615C597.762 -3.19615 582.622 -0.777551 568.001 1.57155C553.424 3.90675 538.359 6.32536 523.5 6.32536C522.494 6.35316 521.517 6.31146 520.511 6.29756C513.733 6.14466 503.137 2.28046 491.904 -1.80615C478.822 -6.57385 465.296 -11.5084 455.558 -11.5084C452.184 -11.5084 449.535 -10.9246 447.419 -9.72916C430.799 -0.304948 434.869 13.9009 438.806 27.648C442.491 40.4916 445.954 52.5707 433.596 60.7717Z" fill="white" fill-opacity="0.2"/>
<path d="M307.731 25.2704C310.898 25.2704 314.568 24.909 320.014 24.0472C333.822 21.8788 347.526 20.8641 363.154 20.8641C367.075 20.8641 371.101 20.9197 375.481 21.0587C377.005 21.1004 378.323 21.1282 379.521 21.1282C386.758 21.1282 390.976 20.3081 394.084 18.2787C397.798 15.8601 400.018 11.6345 401.468 4.11462C404.813 -13.1214 412.168 -28.606 424.614 -44.591H424.066C411.709 -28.6477 404.369 -13.177 401.039 4.04512C399.604 11.4399 397.443 15.596 393.832 17.9312C390.798 19.905 386.654 20.6973 379.521 20.6973C378.323 20.6973 377.005 20.6695 375.496 20.6278C371.115 20.5027 367.09 20.4332 363.154 20.4332C347.511 20.4332 333.778 21.4479 319.94 23.6302C314.524 24.4781 310.869 24.8534 307.731 24.8534C298.807 24.8534 292.414 22.0456 290.18 8.34023C288.049 -4.75359 289.943 -18.6258 291.896 -27.9527C293.154 -33.9714 294.915 -39.5036 297.106 -44.591H296.647C294.457 -39.5314 292.725 -34.0409 291.467 -28.0222C289.499 -18.6675 287.605 -4.73969 289.75 8.40973C291.689 20.3915 296.898 25.2704 307.731 25.2704Z" fill="white" fill-opacity="0.2"/>
<path d="M313.828 14.8315C315.219 14.8315 316.714 14.7064 318.297 14.4562C330.062 12.6075 342.642 11.5094 355.709 11.2175C358.758 11.148 361.688 11.2175 364.485 11.287C366.364 11.3287 368.14 11.3704 369.872 11.3704C375.199 11.3704 380.705 10.9812 384.952 8.18732C388.474 5.86602 390.99 2.00182 392.633 -3.59989C397.087 -18.8204 403.466 -32.2895 412.049 -44.591H411.516C402.992 -32.3173 396.643 -18.8899 392.203 -3.71109C390.59 1.79332 388.134 5.57412 384.7 7.83982C380.542 10.5781 375.111 10.9534 369.872 10.9534C368.14 10.9534 366.379 10.9117 364.5 10.87C361.703 10.8005 358.758 10.731 355.709 10.8005C342.627 11.1063 330.003 12.1905 318.223 14.0531C311.46 15.1234 306.428 13.8446 303.291 10.2584C296.143 2.09912 299.991 -16.2211 302.063 -26.0623C303.513 -32.9428 305.659 -39.0866 308.515 -44.591H308.012C305.185 -39.1005 303.054 -32.9845 301.619 -26.1457C299.532 -16.235 295.669 2.19642 302.936 10.5086C305.452 13.372 309.122 14.8315 313.828 14.8315Z" fill="white" fill-opacity="0.2"/>
</svg>
