<svg width="42" height="42" viewBox="0 0 42 42" fill="none" xmlns="http://www.w3.org/2000/svg">
<path d="M24.1333 7.82877C25.3789 7.82877 26.4293 8.67067 26.7535 9.82009C27.7963 12.8683 29.6869 17.2075 31.091 19.1691C31.3395 18.5223 31.5194 17.7128 31.598 17.001C31.6252 16.7541 31.7967 15.1502 32.0362 14.4333C32.3248 13.5695 32.9197 12.8263 33.8142 12.5354C35.2699 12.0621 36.8516 12.9299 37.3469 14.4739C37.3925 14.6162 37.4274 14.7592 37.4518 14.9021C37.622 15.6359 37.504 16.3102 37.434 16.7549C37.3254 17.4453 37.0796 19.101 36.9655 20.2002C36.8229 21.5742 36.7414 23.8814 37.1285 26.4756C37.5196 28.3295 37.4137 30.2969 37.3118 31.0488C36.1899 39.3317 27.081 39.9492 24.5193 38.7277C22.7738 38.1565 20.9228 36.7978 18.3777 34.1763C15.402 31.1111 12.684 27.7376 11.1707 25.4567C10.8288 25.0019 10.626 24.4353 10.626 23.821C10.626 22.3228 11.8324 21.1082 13.3206 21.1082C13.6056 21.1082 13.8803 21.1527 14.1381 21.2353C13.6468 20.2715 13.2505 19.4288 12.9417 18.4968C12.8472 18.22 12.7959 17.9231 12.7959 17.614C12.7959 16.1158 14.0023 14.9012 15.4904 14.9012C16.3158 14.9012 17.0544 15.2748 17.5487 15.8631C17.3928 15.5121 16.4607 13.1956 16.2974 12.1159C16.2771 11.9817 16.2666 11.8442 16.2666 11.7042C16.2666 10.206 17.473 8.99142 18.9612 8.99142C20.0473 8.99142 20.9833 9.63834 21.4098 10.5703C21.41 9.05617 22.6293 7.82877 24.1333 7.82877Z" fill="#4B3234"/>
<path d="M24.1333 7.82877C25.3789 7.82877 26.4293 8.67067 26.7535 9.82009C27.7963 12.8683 29.6869 17.2075 31.091 19.1691C31.3395 18.5223 31.5194 17.7128 31.598 17.001C31.6252 16.7541 31.7967 15.1502 32.0362 14.4333C32.3248 13.5695 32.9197 12.8263 33.8142 12.5354C35.2699 12.0621 36.8516 12.9299 37.3469 14.4739C37.3925 14.6162 37.4274 14.7592 37.4518 14.9021C37.622 15.6359 37.504 16.3102 37.434 16.7549C37.3254 17.4453 37.0796 19.101 36.9655 20.2002C36.8229 21.5742 36.7414 23.8814 37.1285 26.4756C37.5196 28.3295 37.4137 30.2969 37.3118 31.0488C36.1899 39.3317 27.081 39.9492 24.5193 38.7277C22.7738 38.1565 20.9228 36.7978 18.3777 34.1763C15.402 31.1111 12.684 27.7376 11.1707 25.4567C10.8288 25.0019 10.626 24.4353 10.626 23.821C10.626 22.3228 11.8324 21.1082 13.3206 21.1082C13.6056 21.1082 13.8803 21.1527 14.1381 21.2353C13.6468 20.2715 13.2505 19.4288 12.9417 18.4968C12.8472 18.22 12.7959 17.9231 12.7959 17.614C12.7959 16.1158 14.0023 14.9012 15.4904 14.9012C16.3158 14.9012 17.0544 15.2748 17.5487 15.8631C17.3928 15.5121 16.4607 13.1956 16.2974 12.1159C16.2771 11.9817 16.2666 11.8442 16.2666 11.7042C16.2666 10.206 17.473 8.99142 18.9612 8.99142C20.0473 8.99142 20.9833 9.63834 21.4098 10.5703C21.41 9.05617 22.6293 7.82877 24.1333 7.82877Z" fill="url(#paint0_radial_57_125)"/>
<path d="M21.4102 10.5373C21.4474 10.8628 21.5427 11.2803 21.7377 11.792C21.8226 12.0149 21.926 12.3005 22.0476 12.6361C22.6275 14.2376 23.6198 16.9777 24.9805 19.4741C25.4932 20.4147 26.4287 21.0751 27.4933 21.0251C28.8957 20.9591 30.5072 20.4932 31.1247 19.103L31.121 19.0897C31.1112 19.1164 31.1012 19.1429 31.0911 19.1691C29.6871 17.2075 27.7964 12.8683 26.7537 9.82009C26.4295 8.67067 25.3791 7.82877 24.1335 7.82877C22.6404 7.82877 21.4279 9.03838 21.4102 10.5373Z" fill="url(#paint1_radial_57_125)"/>
<path d="M21.4102 10.5373C21.4474 10.8628 21.5427 11.2803 21.7377 11.792C21.8226 12.0149 21.926 12.3005 22.0476 12.6361C22.6275 14.2376 23.6198 16.9777 24.9805 19.4741C25.4932 20.4147 26.4287 21.0751 27.4933 21.0251C28.8957 20.9591 30.5072 20.4932 31.1247 19.103L31.121 19.0897C31.1112 19.1164 31.1012 19.1429 31.0911 19.1691C29.6871 17.2075 27.7964 12.8683 26.7537 9.82009C26.4295 8.67067 25.3791 7.82877 24.1335 7.82877C22.6404 7.82877 21.4279 9.03838 21.4102 10.5373Z" fill="url(#paint2_radial_57_125)"/>
<path d="M21.4102 10.5373C21.4474 10.8628 21.5427 11.2803 21.7377 11.792C21.8226 12.0149 21.926 12.3005 22.0476 12.6361C22.6275 14.2376 23.6198 16.9777 24.9805 19.4741C25.4932 20.4147 26.4287 21.0751 27.4933 21.0251C28.8957 20.9591 30.5072 20.4932 31.1247 19.103L31.121 19.0897C31.1112 19.1164 31.1012 19.1429 31.0911 19.1691C29.6871 17.2075 27.7964 12.8683 26.7537 9.82009C26.4295 8.67067 25.3791 7.82877 24.1335 7.82877C22.6404 7.82877 21.4279 9.03838 21.4102 10.5373Z" fill="url(#paint3_linear_57_125)"/>
<path d="M21.4102 10.5373C21.4474 10.8628 21.5427 11.2803 21.7377 11.792C21.8226 12.0149 21.926 12.3005 22.0476 12.6361C22.6275 14.2376 23.6198 16.9777 24.9805 19.4741C25.4932 20.4147 26.4287 21.0751 27.4933 21.0251C28.8957 20.9591 30.5072 20.4932 31.1247 19.103L31.121 19.0897C31.1112 19.1164 31.1012 19.1429 31.0911 19.1691C29.6871 17.2075 27.7964 12.8683 26.7537 9.82009C26.4295 8.67067 25.3791 7.82877 24.1335 7.82877C22.6404 7.82877 21.4279 9.03838 21.4102 10.5373Z" fill="url(#paint4_linear_57_125)"/>
<path d="M21.4102 10.5373C21.4474 10.8628 21.5427 11.2803 21.7377 11.792C21.8226 12.0149 21.926 12.3005 22.0476 12.6361C22.6275 14.2376 23.6198 16.9777 24.9805 19.4741C25.4932 20.4147 26.4287 21.0751 27.4933 21.0251C28.8957 20.9591 30.5072 20.4932 31.1247 19.103L31.121 19.0897C31.1112 19.1164 31.1012 19.1429 31.0911 19.1691C29.6871 17.2075 27.7964 12.8683 26.7537 9.82009C26.4295 8.67067 25.3791 7.82877 24.1335 7.82877C22.6404 7.82877 21.4279 9.03838 21.4102 10.5373Z" fill="url(#paint5_radial_57_125)"/>
<g filter="url(#filter0_f_57_125)">
<path d="M18.3891 29.74C16.5747 27.7362 14.7801 25.4285 13.8043 24.0661C13.5212 23.6708 13.6066 23.1296 13.9858 22.8253C14.3924 22.499 14.9866 22.5648 15.312 22.9721L18.5724 27.0535C18.5887 28.2347 18.457 29.3367 18.3891 29.74Z" fill="#604C4A"/>
</g>
<g filter="url(#filter1_f_57_125)">
<path d="M20.0332 10.8281C20.4542 12.3047 22.3278 17.8696 24.3109 21.0615" stroke="url(#paint6_linear_57_125)" stroke-linecap="round"/>
</g>
<g filter="url(#filter2_f_57_125)">
<path d="M26.7349 13.3916C27.183 14.4443 28.2586 17.2102 29.7904 19.4414" stroke="url(#paint7_linear_57_125)" stroke-width="0.7" stroke-linecap="round"/>
</g>
<path d="M12.9467 18.4967C12.8521 18.22 12.8008 17.9231 12.8008 17.614C12.8008 16.1158 14.0072 14.9012 15.4954 14.9012C16.3065 14.9012 17.0338 15.262 17.5278 15.8328C18.8768 18.5698 20.538 21.7629 21.7999 23.625C20.1958 25.8193 19.8104 26.9267 19.4777 27.8701C18.4592 26.4414 16.3284 23.5328 15.5666 22.5586C15.1583 22.0364 14.6602 21.3691 14.1459 21.2358C13.6061 20.2361 13.214 19.3039 12.9467 18.4967Z" fill="url(#paint8_radial_57_125)"/>
<path d="M12.9467 18.4967C12.8521 18.22 12.8008 17.9231 12.8008 17.614C12.8008 16.1158 14.0072 14.9012 15.4954 14.9012C16.3065 14.9012 17.0338 15.262 17.5278 15.8328C18.8768 18.5698 20.538 21.7629 21.7999 23.625C20.1958 25.8193 19.8104 26.9267 19.4777 27.8701C18.4592 26.4414 16.3284 23.5328 15.5666 22.5586C15.1583 22.0364 14.6602 21.3691 14.1459 21.2358C13.6061 20.2361 13.214 19.3039 12.9467 18.4967Z" fill="url(#paint9_radial_57_125)"/>
<path d="M12.9467 18.4967C12.8521 18.22 12.8008 17.9231 12.8008 17.614C12.8008 16.1158 14.0072 14.9012 15.4954 14.9012C16.3065 14.9012 17.0338 15.262 17.5278 15.8328C18.8768 18.5698 20.538 21.7629 21.7999 23.625C20.1958 25.8193 19.8104 26.9267 19.4777 27.8701C18.4592 26.4414 16.3284 23.5328 15.5666 22.5586C15.1583 22.0364 14.6602 21.3691 14.1459 21.2358C13.6061 20.2361 13.214 19.3039 12.9467 18.4967Z" fill="url(#paint10_radial_57_125)"/>
<path d="M12.9467 18.4967C12.8521 18.22 12.8008 17.9231 12.8008 17.614C12.8008 16.1158 14.0072 14.9012 15.4954 14.9012C16.3065 14.9012 17.0338 15.262 17.5278 15.8328C18.8768 18.5698 20.538 21.7629 21.7999 23.625C20.1958 25.8193 19.8104 26.9267 19.4777 27.8701C18.4592 26.4414 16.3284 23.5328 15.5666 22.5586C15.1583 22.0364 14.6602 21.3691 14.1459 21.2358C13.6061 20.2361 13.214 19.3039 12.9467 18.4967Z" fill="url(#paint11_radial_57_125)"/>
<path d="M12.9467 18.4967C12.8521 18.22 12.8008 17.9231 12.8008 17.614C12.8008 16.1158 14.0072 14.9012 15.4954 14.9012C16.3065 14.9012 17.0338 15.262 17.5278 15.8328C18.8768 18.5698 20.538 21.7629 21.7999 23.625C20.1958 25.8193 19.8104 26.9267 19.4777 27.8701C18.4592 26.4414 16.3284 23.5328 15.5666 22.5586C15.1583 22.0364 14.6602 21.3691 14.1459 21.2358C13.6061 20.2361 13.214 19.3039 12.9467 18.4967Z" fill="url(#paint12_linear_57_125)"/>
<g filter="url(#filter3_f_57_125)">
<path d="M20.2634 25.2861C18.0427 21.5882 16.6143 18.9137 15.8145 17.5415C15.6169 17.2025 15.7078 16.763 16.0317 16.5416C16.3808 16.3029 16.8593 16.4128 17.0692 16.78L18.8528 19.899L21.0515 23.9121C20.8071 24.5684 20.5219 25.0811 20.2634 25.2861Z" fill="url(#paint13_linear_57_125)"/>
</g>
<path d="M31.0856 19.1615C31.0874 19.164 31.0892 19.1665 31.091 19.1691C31.3396 18.5224 31.5195 17.7128 31.598 17.001C31.5988 16.994 31.5997 16.986 31.6006 16.977C31.6349 16.6647 31.8035 15.13 32.0362 14.4333C32.3248 13.5695 32.9198 12.8263 33.8142 12.5354C35.27 12.0621 36.8516 12.93 37.3469 14.4739C37.3926 14.6162 37.4274 14.7593 37.4519 14.9021C37.6156 15.6081 37.5126 16.2591 37.4422 16.7034C37.4394 16.7209 37.4367 16.7381 37.4341 16.7549C37.3254 17.4453 37.0796 19.101 36.9656 20.2002C36.8429 21.3822 36.7655 23.2546 36.9926 25.4063C34.0324 25.9801 32.2143 24.0967 31.6006 23.0098C30.9372 21.8347 30.8004 19.6009 31.0856 19.1615Z" fill="url(#paint14_radial_57_125)"/>
<path d="M31.0856 19.1615C31.0874 19.164 31.0892 19.1665 31.091 19.1691C31.3396 18.5224 31.5195 17.7128 31.598 17.001C31.5988 16.994 31.5997 16.986 31.6006 16.977C31.6349 16.6647 31.8035 15.13 32.0362 14.4333C32.3248 13.5695 32.9198 12.8263 33.8142 12.5354C35.27 12.0621 36.8516 12.93 37.3469 14.4739C37.3926 14.6162 37.4274 14.7593 37.4519 14.9021C37.6156 15.6081 37.5126 16.2591 37.4422 16.7034C37.4394 16.7209 37.4367 16.7381 37.4341 16.7549C37.3254 17.4453 37.0796 19.101 36.9656 20.2002C36.8429 21.3822 36.7655 23.2546 36.9926 25.4063C34.0324 25.9801 32.2143 24.0967 31.6006 23.0098C30.9372 21.8347 30.8004 19.6009 31.0856 19.1615Z" fill="url(#paint15_radial_57_125)"/>
<path d="M31.0856 19.1615C31.0874 19.164 31.0892 19.1665 31.091 19.1691C31.3396 18.5224 31.5195 17.7128 31.598 17.001C31.5988 16.994 31.5997 16.986 31.6006 16.977C31.6349 16.6647 31.8035 15.13 32.0362 14.4333C32.3248 13.5695 32.9198 12.8263 33.8142 12.5354C35.27 12.0621 36.8516 12.93 37.3469 14.4739C37.3926 14.6162 37.4274 14.7593 37.4519 14.9021C37.6156 15.6081 37.5126 16.2591 37.4422 16.7034C37.4394 16.7209 37.4367 16.7381 37.4341 16.7549C37.3254 17.4453 37.0796 19.101 36.9656 20.2002C36.8429 21.3822 36.7655 23.2546 36.9926 25.4063C34.0324 25.9801 32.2143 24.0967 31.6006 23.0098C30.9372 21.8347 30.8004 19.6009 31.0856 19.1615Z" fill="url(#paint16_radial_57_125)"/>
<g filter="url(#filter4_f_57_125)">
<ellipse rx="1.01" ry="1.44944" transform="matrix(0.86684 -0.498586 0.49355 0.869718 35.8912 14.5503)" fill="url(#paint17_radial_57_125)"/>
</g>
<g filter="url(#filter5_f_57_125)">
<path d="M35.8911 25.2656C32.3711 24.3797 31.3825 21.3418 31.3282 19.9336C30.7171 20.207 30.0245 22.374 30.493 23.8301C31.4094 26.6781 34.3837 27.5352 35.1985 27.5625L35.8911 25.2656Z" fill="#513939"/>
</g>
<g filter="url(#filter6_f_57_125)">
<path d="M31.5637 21.9209C31.5322 21.8734 31.5045 21.8261 31.481 21.7793C31.5088 21.8265 31.5364 21.8737 31.5637 21.9209C32.2234 22.9171 34.5644 24.0501 36.0031 24.3633C36.6007 25.9629 37.592 33.3047 33.1921 36.2168C34.2158 34.4131 34.9323 27.7528 31.5637 21.9209Z" fill="url(#paint18_radial_57_125)"/>
</g>
<path d="M17.4174 15.5488C18.4112 17.6976 19.6518 20.3848 21.2125 22.6768C21.4224 22.9851 21.7947 23.1437 22.1455 23.0169C22.969 22.7189 24.1697 22.0147 25.1037 20.7716C25.331 20.4691 25.3246 20.0597 25.1379 19.7306C24.0369 17.7911 22.408 14.1976 21.3933 10.5349C20.9594 9.62197 20.0335 8.99142 18.9612 8.99142C17.473 8.99142 16.2666 10.206 16.2666 11.7042C16.2666 11.8442 16.2771 11.9817 16.2974 12.1159C16.4341 13.0197 17.1095 14.79 17.4174 15.5488Z" fill="url(#paint19_radial_57_125)"/>
<path d="M17.4174 15.5488C18.4112 17.6976 19.6518 20.3848 21.2125 22.6768C21.4224 22.9851 21.7947 23.1437 22.1455 23.0169C22.969 22.7189 24.1697 22.0147 25.1037 20.7716C25.331 20.4691 25.3246 20.0597 25.1379 19.7306C24.0369 17.7911 22.408 14.1976 21.3933 10.5349C20.9594 9.62197 20.0335 8.99142 18.9612 8.99142C17.473 8.99142 16.2666 10.206 16.2666 11.7042C16.2666 11.8442 16.2771 11.9817 16.2974 12.1159C16.4341 13.0197 17.1095 14.79 17.4174 15.5488Z" fill="url(#paint20_radial_57_125)"/>
<path d="M17.4174 15.5488C18.4112 17.6976 19.6518 20.3848 21.2125 22.6768C21.4224 22.9851 21.7947 23.1437 22.1455 23.0169C22.969 22.7189 24.1697 22.0147 25.1037 20.7716C25.331 20.4691 25.3246 20.0597 25.1379 19.7306C24.0369 17.7911 22.408 14.1976 21.3933 10.5349C20.9594 9.62197 20.0335 8.99142 18.9612 8.99142C17.473 8.99142 16.2666 10.206 16.2666 11.7042C16.2666 11.8442 16.2771 11.9817 16.2974 12.1159C16.4341 13.0197 17.1095 14.79 17.4174 15.5488Z" fill="url(#paint21_linear_57_125)"/>
<g filter="url(#filter7_f_57_125)">
<path d="M23.7812 21.9368C24.1326 21.6805 24.5095 21.3934 25.0035 20.8345" stroke="#5B4847" stroke-opacity="0.5" stroke-width="0.75" stroke-linecap="round"/>
</g>
<path d="M14.1381 21.2353C13.8803 21.1527 13.6056 21.1082 13.3206 21.1082C11.8324 21.1082 10.626 22.3228 10.626 23.821C10.626 24.4353 10.8288 25.0019 11.1707 25.4567C12.4795 27.4294 14.6894 30.2194 17.1879 32.9204C20.2883 31.4583 20.0126 28.4854 19.4839 27.8528C19.4736 27.8819 16.8439 24.192 15.5667 22.5586C15.5458 22.5319 15.5246 22.5047 15.5032 22.4773C15.1073 21.9694 14.6339 21.3623 14.146 21.2359C13.9582 20.8881 13.9563 20.8786 14.1381 21.2353Z" fill="url(#paint22_radial_57_125)"/>
<g filter="url(#filter8_f_57_125)">
<path d="M18.7295 29.4902C19.5443 26.209 24.7998 20.7949 28.9961 20.2207" stroke="#452D2B" stroke-linecap="round"/>
</g>
<g filter="url(#filter9_f_57_125)">
<path d="M25.0034 9.39258C25.696 12.3867 28.283 17.3701 29.7904 19.708" stroke="url(#paint23_linear_57_125)" stroke-linecap="round"/>
</g>
<g filter="url(#filter10_i_57_125)">
<path d="M26.3066 3.14282C28.5983 3.30688 32.3566 5.23975 32.2344 10.1821" stroke="#1B99E7" stroke-width="0.9" stroke-linecap="round"/>
<path d="M26.3066 3.14282C28.5983 3.30688 32.3566 5.23975 32.2344 10.1821" stroke="url(#paint24_radial_57_125)" stroke-width="0.9" stroke-linecap="round"/>
</g>
<g filter="url(#filter11_i_57_125)">
<path d="M23.4756 5.21411C25.757 5.29102 30.0144 7.28027 29.8616 12.5918" stroke="#1B99E7" stroke-width="0.9" stroke-linecap="round"/>
<path d="M23.4756 5.21411C25.757 5.29102 30.0144 7.28027 29.8616 12.5918" stroke="url(#paint25_radial_57_125)" stroke-width="0.9" stroke-linecap="round"/>
</g>
<path d="M4.88254 20.9487C4.62281 24.189 6.43575 27.7983 10.9783 28.5571" stroke="url(#paint26_linear_57_125)" stroke-width="0.9" stroke-linecap="round"/>
<path d="M4.88254 20.9487C4.62281 24.189 6.43575 27.7983 10.9783 28.5571" stroke="url(#paint27_radial_57_125)" stroke-width="0.9" stroke-linecap="round"/>
<path d="M2.39208 23.3994C2.08649 26.6396 4.21518 29.9414 8.20776 30.4849" stroke="url(#paint28_linear_57_125)" stroke-width="0.9" stroke-linecap="round"/>
<path d="M2.39208 23.3994C2.08649 26.6396 4.21518 29.9414 8.20776 30.4849" stroke="url(#paint29_radial_57_125)" stroke-width="0.9" stroke-linecap="round"/>
<defs>
<filter id="filter0_f_57_125" x="12.8867" y="21.8679" width="6.43701" height="8.62213" filterUnits="userSpaceOnUse" color-interpolation-filters="sRGB">
<feFlood flood-opacity="0" result="BackgroundImageFix"/>
<feBlend mode="normal" in="SourceGraphic" in2="BackgroundImageFix" result="shape"/>
<feGaussianBlur stdDeviation="0.375" result="effect1_foregroundBlur_57_125"/>
</filter>
<filter id="filter1_f_57_125" x="18.5332" y="9.328" width="7.27783" height="13.2336" filterUnits="userSpaceOnUse" color-interpolation-filters="sRGB">
<feFlood flood-opacity="0" result="BackgroundImageFix"/>
<feBlend mode="normal" in="SourceGraphic" in2="BackgroundImageFix" result="shape"/>
<feGaussianBlur stdDeviation="0.5" result="effect1_foregroundBlur_57_125"/>
</filter>
<filter id="filter2_f_57_125" x="25.6848" y="12.3415" width="5.15586" height="8.14994" filterUnits="userSpaceOnUse" color-interpolation-filters="sRGB">
<feFlood flood-opacity="0" result="BackgroundImageFix"/>
<feBlend mode="normal" in="SourceGraphic" in2="BackgroundImageFix" result="shape"/>
<feGaussianBlur stdDeviation="0.35" result="effect1_foregroundBlur_57_125"/>
</filter>
<filter id="filter3_f_57_125" x="14.9104" y="15.6151" width="6.94082" height="10.4711" filterUnits="userSpaceOnUse" color-interpolation-filters="sRGB">
<feFlood flood-opacity="0" result="BackgroundImageFix"/>
<feBlend mode="normal" in="SourceGraphic" in2="BackgroundImageFix" result="shape"/>
<feGaussianBlur stdDeviation="0.4" result="effect1_foregroundBlur_57_125"/>
</filter>
<filter id="filter4_f_57_125" x="34.2607" y="12.6925" width="3.26123" height="3.71564" filterUnits="userSpaceOnUse" color-interpolation-filters="sRGB">
<feFlood flood-opacity="0" result="BackgroundImageFix"/>
<feBlend mode="normal" in="SourceGraphic" in2="BackgroundImageFix" result="shape"/>
<feGaussianBlur stdDeviation="0.25" result="effect1_foregroundBlur_57_125"/>
</filter>
<filter id="filter5_f_57_125" x="29.3389" y="18.9336" width="7.55225" height="9.62891" filterUnits="userSpaceOnUse" color-interpolation-filters="sRGB">
<feFlood flood-opacity="0" result="BackgroundImageFix"/>
<feBlend mode="normal" in="SourceGraphic" in2="BackgroundImageFix" result="shape"/>
<feGaussianBlur stdDeviation="0.5" result="effect1_foregroundBlur_57_125"/>
</filter>
<filter id="filter6_f_57_125" x="29.981" y="20.2793" width="8.05811" height="17.4375" filterUnits="userSpaceOnUse" color-interpolation-filters="sRGB">
<feFlood flood-opacity="0" result="BackgroundImageFix"/>
<feBlend mode="normal" in="SourceGraphic" in2="BackgroundImageFix" result="shape"/>
<feGaussianBlur stdDeviation="0.75" result="effect1_foregroundBlur_57_125"/>
</filter>
<filter id="filter7_f_57_125" x="22.9062" y="19.9595" width="2.97217" height="2.85233" filterUnits="userSpaceOnUse" color-interpolation-filters="sRGB">
<feFlood flood-opacity="0" result="BackgroundImageFix"/>
<feBlend mode="normal" in="SourceGraphic" in2="BackgroundImageFix" result="shape"/>
<feGaussianBlur stdDeviation="0.25" result="effect1_foregroundBlur_57_125"/>
</filter>
<filter id="filter8_f_57_125" x="16.7295" y="18.2206" width="14.2666" height="13.2697" filterUnits="userSpaceOnUse" color-interpolation-filters="sRGB">
<feFlood flood-opacity="0" result="BackgroundImageFix"/>
<feBlend mode="normal" in="SourceGraphic" in2="BackgroundImageFix" result="shape"/>
<feGaussianBlur stdDeviation="0.75" result="effect1_foregroundBlur_57_125"/>
</filter>
<filter id="filter9_f_57_125" x="23.3034" y="7.69246" width="8.18711" height="13.7156" filterUnits="userSpaceOnUse" color-interpolation-filters="sRGB">
<feFlood flood-opacity="0" result="BackgroundImageFix"/>
<feBlend mode="normal" in="SourceGraphic" in2="BackgroundImageFix" result="shape"/>
<feGaussianBlur stdDeviation="0.6" result="effect1_foregroundBlur_57_125"/>
</filter>
<filter id="filter10_i_57_125" x="25.8564" y="2.59281" width="6.93105" height="8.03933" filterUnits="userSpaceOnUse" color-interpolation-filters="sRGB">
<feFlood flood-opacity="0" result="BackgroundImageFix"/>
<feBlend mode="normal" in="SourceGraphic" in2="BackgroundImageFix" result="shape"/>
<feColorMatrix in="SourceAlpha" type="matrix" values="0 0 0 0 0 0 0 0 0 0 0 0 0 0 0 0 0 0 127 0" result="hardAlpha"/>
<feOffset dx="0.1" dy="-0.1"/>
<feGaussianBlur stdDeviation="0.25"/>
<feComposite in2="hardAlpha" operator="arithmetic" k2="-1" k3="1"/>
<feColorMatrix type="matrix" values="0 0 0 0 0.0823529 0 0 0 0 0.337255 0 0 0 0 0.627451 0 0 0 1 0"/>
<feBlend mode="normal" in2="shape" result="effect1_innerShadow_57_125"/>
</filter>
<filter id="filter11_i_57_125" x="23.0254" y="4.6641" width="7.39004" height="8.37771" filterUnits="userSpaceOnUse" color-interpolation-filters="sRGB">
<feFlood flood-opacity="0" result="BackgroundImageFix"/>
<feBlend mode="normal" in="SourceGraphic" in2="BackgroundImageFix" result="shape"/>
<feColorMatrix in="SourceAlpha" type="matrix" values="0 0 0 0 0 0 0 0 0 0 0 0 0 0 0 0 0 0 127 0" result="hardAlpha"/>
<feOffset dx="0.1" dy="-0.1"/>
<feGaussianBlur stdDeviation="0.25"/>
<feComposite in2="hardAlpha" operator="arithmetic" k2="-1" k3="1"/>
<feColorMatrix type="matrix" values="0 0 0 0 0.0823529 0 0 0 0 0.337255 0 0 0 0 0.627451 0 0 0 1 0"/>
<feBlend mode="normal" in2="shape" result="effect1_innerShadow_57_125"/>
</filter>
<radialGradient id="paint0_radial_57_125" cx="0" cy="0" r="1" gradientUnits="userSpaceOnUse" gradientTransform="translate(30.0053 18.7177) rotate(99.0235) scale(20.8354 23.17)">
<stop offset="0.788093" stop-color="#3F233B" stop-opacity="0"/>
<stop offset="1" stop-color="#3F233B"/>
</radialGradient>
<radialGradient id="paint1_radial_57_125" cx="0" cy="0" r="1" gradientUnits="userSpaceOnUse" gradientTransform="translate(29.4482 14.4282) rotate(155.894) scale(5.35381 11.2991)">
<stop offset="0.719134" stop-color="#41292D" stop-opacity="0"/>
<stop offset="1" stop-color="#41292D"/>
</radialGradient>
<radialGradient id="paint2_radial_57_125" cx="0" cy="0" r="1" gradientUnits="userSpaceOnUse" gradientTransform="translate(29.4482 14.4282) rotate(154.803) scale(6.72294 16.9885)">
<stop offset="0.768664" stop-color="#251011" stop-opacity="0"/>
<stop offset="1" stop-color="#251011"/>
</radialGradient>
<linearGradient id="paint3_linear_57_125" x1="25.9604" y1="21.5683" x2="25.4236" y2="18.8069" gradientUnits="userSpaceOnUse">
<stop stop-color="#4B3234"/>
<stop offset="1" stop-color="#4B3234" stop-opacity="0"/>
</linearGradient>
<linearGradient id="paint4_linear_57_125" x1="31.0432" y1="19.8208" x2="30.3482" y2="19.4562" gradientUnits="userSpaceOnUse">
<stop stop-color="#4B3234"/>
<stop offset="1" stop-color="#4B3234" stop-opacity="0"/>
</linearGradient>
<radialGradient id="paint5_radial_57_125" cx="0" cy="0" r="1" gradientUnits="userSpaceOnUse" gradientTransform="translate(31.1247 19.1953) rotate(-127.404) scale(4.87931 1.0418)">
<stop stop-color="#33211E"/>
<stop offset="1" stop-color="#33211E" stop-opacity="0"/>
</radialGradient>
<linearGradient id="paint6_linear_57_125" x1="23.7233" y1="18.1453" x2="19.0424" y2="11.0862" gradientUnits="userSpaceOnUse">
<stop stop-color="#5E4B4A"/>
<stop offset="1" stop-color="#614E4C"/>
</linearGradient>
<linearGradient id="paint7_linear_57_125" x1="29.8108" y1="19.1133" x2="26.5592" y2="13.3488" gradientUnits="userSpaceOnUse">
<stop stop-color="#5B4847"/>
<stop offset="1" stop-color="#5B4847" stop-opacity="0"/>
</linearGradient>
<radialGradient id="paint8_radial_57_125" cx="0" cy="0" r="1" gradientUnits="userSpaceOnUse" gradientTransform="translate(19.9921 20.1797) rotate(146.274) scale(4.58005 12.29)">
<stop offset="0.425307" stop-color="#442A2F" stop-opacity="0"/>
<stop offset="1" stop-color="#442A2F"/>
</radialGradient>
<radialGradient id="paint9_radial_57_125" cx="0" cy="0" r="1" gradientUnits="userSpaceOnUse" gradientTransform="translate(19.9921 20.1797) rotate(147.655) scale(5.97961 16.0502)">
<stop offset="0.624797" stop-color="#281514" stop-opacity="0"/>
<stop offset="1" stop-color="#281514"/>
</radialGradient>
<radialGradient id="paint10_radial_57_125" cx="0" cy="0" r="1" gradientUnits="userSpaceOnUse" gradientTransform="translate(17.4282 21.3857) rotate(-30.1217) scale(2.89352 18.3764)">
<stop offset="0.504062" stop-color="#432A27" stop-opacity="0"/>
<stop offset="1" stop-color="#432A27"/>
</radialGradient>
<radialGradient id="paint11_radial_57_125" cx="0" cy="0" r="1" gradientUnits="userSpaceOnUse" gradientTransform="translate(20.3588 19.3594) rotate(143.979) scale(2.72005 7.74782)">
<stop stop-color="#251011"/>
<stop offset="1" stop-color="#251011" stop-opacity="0"/>
</radialGradient>
<linearGradient id="paint12_linear_57_125" x1="21.0921" y1="25.1015" x2="18.8448" y2="23.9246" gradientUnits="userSpaceOnUse">
<stop stop-color="#4B3234"/>
<stop offset="1" stop-color="#4B3234" stop-opacity="0"/>
</linearGradient>
<linearGradient id="paint13_linear_57_125" x1="16.3746" y1="16.5492" x2="20.7088" y2="24.404" gradientUnits="userSpaceOnUse">
<stop stop-color="#5F4C4A"/>
<stop offset="1" stop-color="#5D4846"/>
</linearGradient>
<radialGradient id="paint14_radial_57_125" cx="0" cy="0" r="1" gradientUnits="userSpaceOnUse" gradientTransform="translate(32.4587 23.2149) rotate(-77.7361) scale(6.90464 2.96221)">
<stop stop-color="#4E3537"/>
<stop offset="1" stop-color="#492F33" stop-opacity="0"/>
</radialGradient>
<radialGradient id="paint15_radial_57_125" cx="0" cy="0" r="1" gradientUnits="userSpaceOnUse" gradientTransform="translate(31.5217 14.9707) rotate(6.00449) scale(1.37233 4.88667)">
<stop stop-color="#261514"/>
<stop offset="1" stop-color="#261514" stop-opacity="0"/>
</radialGradient>
<radialGradient id="paint16_radial_57_125" cx="0" cy="0" r="1" gradientUnits="userSpaceOnUse" gradientTransform="translate(37.8772 22.1895) rotate(-115.492) scale(10.8384 7.48844)">
<stop offset="0.881886" stop-color="#261514" stop-opacity="0"/>
<stop offset="1" stop-color="#261514"/>
</radialGradient>
<radialGradient id="paint17_radial_57_125" cx="0" cy="0" r="1" gradientUnits="userSpaceOnUse" gradientTransform="translate(1.81911 1.45356) rotate(167.003) scale(2.27763 3.17274)">
<stop stop-color="#64504E"/>
<stop offset="1" stop-color="#64504E" stop-opacity="0"/>
</radialGradient>
<radialGradient id="paint18_radial_57_125" cx="0" cy="0" r="1" gradientUnits="userSpaceOnUse" gradientTransform="translate(37.6327 24.6914) rotate(113.805) scale(16.0489 7.98618)">
<stop stop-color="#644F4E"/>
<stop offset="1" stop-color="#644F4E" stop-opacity="0"/>
</radialGradient>
<radialGradient id="paint19_radial_57_125" cx="0" cy="0" r="1" gradientUnits="userSpaceOnUse" gradientTransform="translate(23.8663 16.0826) rotate(149.461) scale(5.96442 14.164)">
<stop offset="0.701197" stop-color="#251011" stop-opacity="0"/>
<stop offset="1" stop-color="#251011"/>
</radialGradient>
<radialGradient id="paint20_radial_57_125" cx="0" cy="0" r="1" gradientUnits="userSpaceOnUse" gradientTransform="translate(24.5552 15.791) rotate(154.889) scale(2.60957 10.0462)">
<stop stop-color="#251011"/>
<stop offset="1" stop-color="#251011" stop-opacity="0"/>
</radialGradient>
<linearGradient id="paint21_linear_57_125" x1="22.1922" y1="23.2764" x2="21.0581" y2="19.8151" gradientUnits="userSpaceOnUse">
<stop stop-color="#4C3335"/>
<stop offset="1" stop-color="#4C3335" stop-opacity="0"/>
</linearGradient>
<radialGradient id="paint22_radial_57_125" cx="0" cy="0" r="1" gradientUnits="userSpaceOnUse" gradientTransform="translate(17.833 24.0352) rotate(139.852) scale(1.97203 6.69403)">
<stop stop-color="#251011"/>
<stop offset="1" stop-color="#251011" stop-opacity="0"/>
</radialGradient>
<linearGradient id="paint23_linear_57_125" x1="31.3182" y1="21.2461" x2="25.223" y2="8.97398" gradientUnits="userSpaceOnUse">
<stop stop-color="#5F4B4A"/>
<stop offset="1" stop-color="#66514E"/>
</linearGradient>
<radialGradient id="paint24_radial_57_125" cx="0" cy="0" r="1" gradientUnits="userSpaceOnUse" gradientTransform="translate(28.9549 6.87012) rotate(-44.9021) scale(2.84711 7.28485)">
<stop stop-color="#16579C"/>
<stop offset="0.743739" stop-color="#16579C" stop-opacity="0"/>
</radialGradient>
<radialGradient id="paint25_radial_57_125" cx="0" cy="0" r="1" gradientUnits="userSpaceOnUse" gradientTransform="translate(26.329 9.12058) rotate(-44.1098) scale(3.02625 7.73952)">
<stop stop-color="#16579C"/>
<stop offset="0.861756" stop-color="#16579C" stop-opacity="0"/>
</radialGradient>
<linearGradient id="paint26_linear_57_125" x1="6.30353" y1="20.9487" x2="10.5047" y2="29.6322" gradientUnits="userSpaceOnUse">
<stop stop-color="#1679C5"/>
<stop offset="1" stop-color="#0D5194"/>
</linearGradient>
<radialGradient id="paint27_radial_57_125" cx="0" cy="0" r="1" gradientUnits="userSpaceOnUse" gradientTransform="translate(7.22019 24.3838) rotate(164.716) scale(2.95638 7.99411)">
<stop offset="0.705955" stop-color="#0E5196" stop-opacity="0"/>
<stop offset="1" stop-color="#0E5196"/>
</radialGradient>
<linearGradient id="paint28_linear_57_125" x1="3.74337" y1="23.3994" x2="8.67562" y2="34.0322" gradientUnits="userSpaceOnUse">
<stop offset="0.297941" stop-color="#1679C5"/>
<stop offset="1" stop-color="#0D5194"/>
</linearGradient>
<radialGradient id="paint29_radial_57_125" cx="0" cy="0" r="1" gradientUnits="userSpaceOnUse" gradientTransform="translate(4.61878 26.5984) rotate(165.079) scale(2.81852 7.45738)">
<stop offset="0.705955" stop-color="#0E5196" stop-opacity="0"/>
<stop offset="1" stop-color="#0E5196"/>
</radialGradient>
</defs>
</svg>
